<svg width="294" height="48" viewBox="0 0 294 48" fill="none" xmlns="http://www.w3.org/2000/svg">
<path d="M66.9687 21.607V23.2644H78.3395C78.3671 23.2644 78.3878 23.2748 78.4016 23.2955C78.4223 23.3093 78.4327 23.33 78.4327 23.3577V24.984C78.4327 25.0117 78.4223 25.0358 78.4016 25.0565C78.3878 25.0704 78.3671 25.0773 78.3395 25.0773H66.9687V26.7347C66.9687 26.9799 67.055 27.1974 67.2311 27.3804C67.4072 27.5565 67.6213 27.6428 67.8768 27.6428H79.8484C79.876 27.6428 79.8968 27.6532 79.9106 27.6739C79.9313 27.6877 79.9417 27.705 79.9417 27.7257V29.3521C79.9417 29.3797 79.9313 29.4039 79.9106 29.4246C79.8968 29.4384 79.876 29.4453 79.8484 29.4453H67.8768C67.0378 29.4453 66.3264 29.1518 65.7325 28.5683C65.149 27.9778 64.8555 27.263 64.8555 26.4239V21.9039C64.8555 21.0649 65.149 20.357 65.7325 19.77C66.323 19.1795 67.0378 18.8826 67.8768 18.8826H79.8484C79.876 18.8826 79.8968 18.8929 79.9106 18.9136C79.9313 18.9275 79.9417 18.9482 79.9417 18.9758V20.6022C79.9417 20.6229 79.9313 20.6436 79.9106 20.6643C79.8968 20.6781 79.876 20.685 79.8484 20.685H67.8768C67.6248 20.685 67.4072 20.7783 67.2311 20.9578C67.055 21.1339 66.9687 21.3446 66.9687 21.5897V21.607Z" fill="#E5E5E5"/>
<path d="M95.6087 18.9956V26.4506C95.6087 27.2828 95.3117 27.9907 94.7212 28.5846C94.1377 29.1681 93.4264 29.4616 92.5873 29.4616H86.1405C85.3118 29.4616 84.6005 29.1681 84.0066 28.5846C83.4161 27.9941 83.1191 27.2828 83.1191 26.4506V18.9956C83.1191 18.9679 83.126 18.9472 83.1399 18.9334C83.1606 18.9127 83.1847 18.9023 83.2124 18.9023H85.1461C85.1668 18.9023 85.184 18.9127 85.1979 18.9334C85.2186 18.9472 85.2289 18.9679 85.2289 18.9956V26.7441C85.2289 26.9962 85.3187 27.2137 85.4948 27.3898C85.6778 27.5659 85.8919 27.6523 86.1371 27.6523H92.5838C92.8359 27.6523 93.0534 27.5659 93.2295 27.3898C93.4056 27.2137 93.492 26.9996 93.492 26.7441V18.9956C93.492 18.9679 93.4989 18.9472 93.5127 18.9334C93.5334 18.9127 93.5576 18.9023 93.5852 18.9023H95.5085C95.5362 18.9023 95.5569 18.9127 95.5707 18.9334C95.5914 18.9472 95.6018 18.9679 95.6018 18.9956H95.6087Z" fill="#E5E5E5"/>
<path d="M181.461 18.9961C181.461 18.9685 181.468 18.9478 181.481 18.9339C181.502 18.9132 181.526 18.9029 181.554 18.9029H183.488C183.508 18.9029 183.526 18.9132 183.539 18.9339C183.56 18.9478 183.57 18.9685 183.57 18.9961V29.3758C183.57 29.3966 183.56 29.4173 183.539 29.438C183.526 29.4518 183.508 29.4587 183.488 29.4587H179.537C178.729 29.438 178.09 29.0961 177.628 28.4332L172.718 21.1162C172.514 20.8504 172.258 20.7157 171.958 20.7157H170.608V29.3724C170.608 29.3931 170.597 29.4138 170.577 29.4345C170.563 29.4483 170.542 29.4553 170.515 29.4553H168.581C168.56 29.4553 168.539 29.4483 168.519 29.4345C168.505 29.4138 168.498 29.3931 168.498 29.3724V18.9926C168.498 18.965 168.505 18.9443 168.519 18.9305C168.539 18.9098 168.56 18.8994 168.581 18.8994H172.531C173.343 18.927 173.978 19.2723 174.441 19.9353L179.351 27.2419C179.548 27.5181 179.8 27.6528 180.111 27.6528H181.461V18.9961Z" fill="#E5E5E5"/>
<path d="M186.734 18.9956C186.734 18.9679 186.741 18.9472 186.755 18.9334C186.776 18.9127 186.797 18.9023 186.817 18.9023H201.724C201.745 18.9023 201.762 18.9127 201.776 18.9334C201.796 18.9472 201.807 18.9679 201.807 18.9956V20.6219C201.807 20.6427 201.796 20.6634 201.776 20.6841C201.762 20.6979 201.745 20.7048 201.724 20.7048H195.325V29.3615C195.325 29.3891 195.315 29.4133 195.294 29.434C195.281 29.4478 195.263 29.4547 195.243 29.4547H193.309C193.281 29.4547 193.257 29.4478 193.236 29.434C193.223 29.4133 193.216 29.3891 193.216 29.3615V20.7048H186.817C186.797 20.7048 186.776 20.6979 186.755 20.6841C186.741 20.6634 186.734 20.6427 186.734 20.6219V18.9956Z" fill="#E5E5E5"/>
<path d="M207.095 21.607V23.2644H218.466C218.493 23.2644 218.514 23.2748 218.528 23.2955C218.549 23.3093 218.559 23.33 218.559 23.3577V24.984C218.559 25.0117 218.549 25.0358 218.528 25.0565C218.514 25.0704 218.493 25.0773 218.466 25.0773H207.095V26.7347C207.095 26.9799 207.181 27.1974 207.357 27.3804C207.534 27.5565 207.748 27.6428 208 27.6428H219.971C219.999 27.6428 220.02 27.6532 220.033 27.6739C220.054 27.6877 220.064 27.705 220.064 27.7257V29.3521C220.064 29.3797 220.054 29.4039 220.033 29.4246C220.02 29.4384 219.999 29.4453 219.971 29.4453H208C207.161 29.4453 206.449 29.1518 205.855 28.5683C205.272 27.9778 204.978 27.263 204.978 26.4239V21.9039C204.978 21.0649 205.272 20.357 205.855 19.77C206.446 19.1795 207.161 18.8826 208 18.8826H219.971C219.999 18.8826 220.02 18.8929 220.033 18.9136C220.054 18.9275 220.064 18.9482 220.064 18.9758V20.6022C220.064 20.6229 220.054 20.6436 220.033 20.6643C220.02 20.6781 219.999 20.685 219.971 20.685H208C207.748 20.685 207.53 20.7783 207.357 20.9578C207.181 21.1339 207.095 21.3446 207.095 21.5897V21.607Z" fill="#E5E5E5"/>
<path d="M238.324 22.975C238.324 23.5862 238.162 24.1387 237.837 24.6324C237.512 25.1193 237.084 25.4819 236.549 25.7201L236.59 25.803L238.269 29.3285C238.276 29.3562 238.272 29.3838 238.258 29.4114C238.244 29.439 238.22 29.4528 238.186 29.4528H236.041C236.007 29.4528 235.979 29.4356 235.959 29.401L234.332 25.9895H225.358V29.3665C225.358 29.3872 225.347 29.408 225.327 29.4287C225.313 29.4425 225.292 29.4494 225.265 29.4494H223.331C223.31 29.4494 223.289 29.4425 223.269 29.4287C223.255 29.408 223.248 29.3872 223.248 29.3665V18.9868C223.248 18.9592 223.255 18.9384 223.269 18.9246C223.289 18.9039 223.31 18.8936 223.331 18.8936H235.313C236.145 18.8936 236.849 19.1905 237.436 19.781C238.027 20.3645 238.324 21.0759 238.324 21.9149V22.9716V22.975ZM225.358 24.1801H235.313C235.558 24.1801 235.772 24.0938 235.948 23.9177C236.124 23.7416 236.214 23.5275 236.214 23.272V21.6145C236.214 21.3694 236.124 21.1587 235.948 20.9826C235.772 20.8065 235.561 20.7202 235.313 20.7202H225.358V24.1836V24.1801Z" fill="#E5E5E5"/>
<path d="M254.455 18.9961C254.455 18.9685 254.462 18.9478 254.476 18.9339C254.496 18.9132 254.52 18.9029 254.548 18.9029H256.482C256.502 18.9029 256.52 18.9132 256.533 18.9339C256.554 18.9478 256.565 18.9685 256.565 18.9961V29.3758C256.565 29.3966 256.554 29.4173 256.533 29.438C256.52 29.4518 256.502 29.4587 256.482 29.4587H252.531C251.723 29.438 251.085 29.0961 250.622 28.4332L245.712 21.1162C245.508 20.8504 245.253 20.7157 244.952 20.7157H243.602V29.3724C243.602 29.3931 243.592 29.4138 243.571 29.4345C243.557 29.4483 243.536 29.4553 243.509 29.4553H241.575C241.554 29.4553 241.534 29.4483 241.513 29.4345C241.499 29.4138 241.492 29.3931 241.492 29.3724V18.9926C241.492 18.965 241.499 18.9443 241.513 18.9305C241.534 18.9098 241.554 18.8994 241.575 18.8994H245.525C246.333 18.927 246.972 19.2723 247.435 19.9353L252.345 27.2419C252.542 27.5181 252.794 27.6528 253.105 27.6528H254.455V18.9961Z" fill="#E5E5E5"/>
<path d="M261.85 21.607V23.2644H273.22C273.248 23.2644 273.269 23.2748 273.282 23.2955C273.303 23.3093 273.314 23.33 273.314 23.3577V24.984C273.314 25.0117 273.303 25.0358 273.282 25.0565C273.269 25.0704 273.248 25.0773 273.22 25.0773H261.85V26.7347C261.85 26.9799 261.936 27.1974 262.112 27.3804C262.288 27.5565 262.502 27.6428 262.758 27.6428H274.729C274.757 27.6428 274.778 27.6532 274.791 27.6739C274.812 27.6877 274.823 27.705 274.823 27.7257V29.3521C274.823 29.3797 274.812 29.4039 274.791 29.4246C274.778 29.4384 274.757 29.4453 274.729 29.4453H262.758C261.919 29.4453 261.204 29.1518 260.613 28.5683C260.03 27.9778 259.736 27.263 259.736 26.4239V21.9039C259.736 21.0649 260.03 20.357 260.613 19.77C261.204 19.1795 261.919 18.8826 262.758 18.8826H274.729C274.757 18.8826 274.778 18.8929 274.791 18.9136C274.812 18.9275 274.823 18.9482 274.823 18.9758V20.6022C274.823 20.6229 274.812 20.6436 274.791 20.6643C274.778 20.6781 274.757 20.685 274.729 20.685H262.758C262.506 20.685 262.288 20.7783 262.112 20.9578C261.936 21.1339 261.85 21.3446 261.85 21.5897V21.607Z" fill="#E5E5E5"/>
<path d="M278.004 18.9956C278.004 18.9679 278.011 18.9472 278.025 18.9334C278.045 18.9127 278.066 18.9023 278.087 18.9023H292.993C293.014 18.9023 293.031 18.9127 293.045 18.9334C293.066 18.9472 293.076 18.9679 293.076 18.9956V20.6219C293.076 20.6427 293.066 20.6634 293.045 20.6841C293.031 20.6979 293.014 20.7048 292.993 20.7048H286.595V29.3615C286.595 29.3891 286.585 29.4133 286.564 29.434C286.55 29.4478 286.533 29.4547 286.512 29.4547H284.578C284.551 29.4547 284.527 29.4478 284.506 29.434C284.492 29.4133 284.485 29.3891 284.485 29.3615V20.7048H278.087C278.066 20.7048 278.045 20.6979 278.025 20.6841C278.011 20.6634 278.004 20.6427 278.004 20.6219V18.9956Z" fill="#E5E5E5"/>
<path d="M113.837 22.975C113.837 23.5862 113.675 24.1387 113.35 24.6324C113.026 25.1193 112.597 25.4819 112.062 25.7201L112.104 25.803L113.782 29.3285C113.789 29.3562 113.782 29.3838 113.771 29.4114C113.758 29.439 113.734 29.4528 113.699 29.4528H111.555C111.52 29.4528 111.492 29.4356 111.468 29.401L109.842 25.9895H100.868V29.3665C100.868 29.3872 100.857 29.408 100.837 29.4287C100.823 29.4425 100.802 29.4494 100.774 29.4494H98.8407C98.82 29.4494 98.7992 29.4425 98.7785 29.4287C98.7647 29.408 98.7578 29.3872 98.7578 29.3665V18.9868C98.7578 18.9592 98.7647 18.9384 98.7785 18.9246C98.7992 18.9039 98.82 18.8936 98.8407 18.8936H110.823C111.655 18.8936 112.359 19.1905 112.946 19.781C113.537 20.3645 113.834 21.0759 113.834 21.9149V22.9716L113.837 22.975ZM100.871 24.1801H110.826C111.071 24.1801 111.282 24.0938 111.458 23.9177C111.634 23.7416 111.72 23.5275 111.72 23.272V21.6145C111.72 21.3694 111.631 21.1587 111.458 20.9826C111.282 20.8065 111.071 20.7202 110.826 20.7202H100.871V24.1836V24.1801Z" fill="#E5E5E5"/>
<path d="M149.132 27.7391V29.3758C149.132 29.3966 149.122 29.4173 149.101 29.438C149.088 29.4518 149.07 29.4587 149.05 29.4587H137.078C136.239 29.4587 135.524 29.1652 134.934 28.5816C134.35 27.9912 134.057 27.2764 134.057 26.4373V18.9926C134.057 18.965 134.064 18.9443 134.077 18.9305C134.098 18.9098 134.119 18.8994 134.14 18.8994H136.073C136.101 18.8994 136.122 18.9098 136.135 18.9305C136.156 18.9443 136.166 18.965 136.166 18.9926V26.7412C136.166 26.9864 136.256 27.2039 136.429 27.3869C136.605 27.563 136.819 27.6493 137.075 27.6493H149.046C149.067 27.6493 149.084 27.6597 149.098 27.6804C149.119 27.6942 149.129 27.7115 149.129 27.7322L149.132 27.7391Z" fill="#E5E5E5"/>
<path d="M116.293 21.7055C116.293 20.8561 116.59 20.1344 117.187 19.537C117.792 18.9328 118.524 18.6289 119.38 18.6289H128.627C129.477 18.6289 130.202 18.9328 130.806 19.537C131.41 20.1344 131.714 20.8561 131.714 21.7055V29.3229C131.714 29.3505 131.704 29.3781 131.683 29.3988C131.669 29.4126 131.648 29.4195 131.617 29.4195H129.642C129.622 29.4195 129.601 29.4126 129.577 29.3988C129.563 29.3781 129.556 29.3505 129.556 29.3229V25.8699H118.451V29.3229C118.451 29.3505 118.441 29.3781 118.42 29.3988C118.406 29.4126 118.389 29.4195 118.365 29.4195H116.39C116.362 29.4195 116.334 29.4126 116.314 29.3988C116.3 29.3781 116.293 29.3505 116.293 29.3229V21.7055ZM129.556 24.026V21.4051C129.556 21.1461 129.463 20.9252 129.276 20.7456C129.097 20.566 128.879 20.4763 128.627 20.4763H119.38C119.121 20.4763 118.9 20.566 118.72 20.7456C118.541 20.9252 118.451 21.1461 118.451 21.4051V24.026H129.556Z" fill="#E5E5E5"/>
<path d="M164.672 29.4049V18.9602C164.672 18.932 164.695 18.9092 164.723 18.9092H166.82C166.848 18.9092 166.871 18.932 166.871 18.9602V20.6338C166.871 20.662 166.848 20.6848 166.82 20.6848H165.26C165.163 20.6848 165.121 20.8089 165.199 20.868L166.871 22.1373V29.4049C166.871 29.433 166.848 29.4559 166.82 29.4559H164.723C164.695 29.4559 164.672 29.433 164.672 29.4049Z" fill="#E5E5E5"/>
<path d="M54.7322 29.5372L50.8662 24.4392C50.7648 24.3054 50.8602 24.1133 51.028 24.1133H52.7128C52.7732 24.1133 52.8304 24.1402 52.869 24.1866L55.8135 27.7291C55.852 27.7755 55.9093 27.8024 55.9696 27.8024H59.5553C59.6675 27.8024 59.7584 27.7114 59.7584 27.5993V19.1582C59.7584 19.046 59.8493 18.9551 59.9615 18.9551H61.5863C61.6984 18.9551 61.7894 19.046 61.7894 19.1582V29.4145C61.7894 29.5266 61.6984 29.6176 61.5863 29.6176H54.894C54.8305 29.6176 54.7706 29.5878 54.7322 29.5372Z" fill="#E5E5E5"/>
<path d="M54.1213 19.0313L57.972 23.8683C58.0779 24.0013 57.9832 24.1978 57.8131 24.1978L56.1407 24.1978C56.0804 24.1978 56.0231 24.171 55.9845 24.1246L53.0401 20.5828C53.0015 20.5363 52.9442 20.5095 52.8839 20.5095L49.2982 20.5095C49.186 20.5095 49.0951 20.6004 49.0951 20.7126L49.0951 29.4141C49.0951 29.5263 49.0042 29.6172 48.892 29.6172L47.2673 29.6172C47.1551 29.6172 47.0642 29.5263 47.0642 29.4141L47.0642 19.1578C47.0642 19.0456 47.1551 18.9547 47.2673 18.9547L53.9624 18.9547C54.0243 18.9547 54.0828 18.9829 54.1213 19.0313Z" fill="#E5E5E5"/>
<path fill-rule="evenodd" clip-rule="evenodd" d="M17.6764 0.326172H19.9777L20.9341 0.385947L22.2492 0.535384L23.355 0.714709L24.4907 0.953809L25.4472 1.2228L26.3438 1.52167L27.2105 1.88032L27.9577 2.23897L28.5853 2.56773L29.2727 2.98616L29.8705 3.40459L30.3786 3.79312L30.7073 4.06211L31.1557 4.45065L31.3649 4.65986L31.604 4.86907L31.8431 5.10817L32.0523 5.34727L32.381 5.70592L32.7098 6.12435L33.0984 6.66232L33.4271 7.23019L33.6662 7.70839L33.9651 8.45557L34.1743 9.20276L34.5031 10.6374L34.8617 11.8627L35.2801 13.1778L35.4296 13.7755L35.4595 13.9848V14.5825L35.3399 15.0607L34.9215 15.9275L34.7422 16.4056L34.6824 16.7643V17.0034L34.7721 17.4517L34.9215 17.8701L35.2204 18.3782L35.9974 19.5438L36.4756 20.2313L36.8642 20.7692L37.7309 21.905L37.9999 22.2337L38.2988 22.682L38.4482 23.0407L38.4781 23.1602V23.3694L38.3287 23.7281L38.0896 24.027L37.7608 24.2362L37.1929 24.4454L36.7147 24.6247L36.3262 24.8638L36.0273 25.1328L35.9377 25.2822L35.9078 25.4018V26.3582L36.0273 26.8065L36.4457 27.7031L36.5653 28.0917L36.5952 28.3607L36.5354 28.6296L36.3561 28.8687L36.117 29.0481L35.6089 29.2872L35.1905 29.4964L35.1307 29.6159L35.2801 29.7654L35.6986 29.9447L35.9676 30.1838L36.0572 30.3332L36.0871 30.4528V30.6919L35.9377 30.9609L35.4296 31.3793L35.2801 31.5287L35.1008 31.7379L34.9813 32.0667V32.4851L35.1008 32.9932L35.2801 33.5312L35.3399 33.86V34.3382L35.2204 34.8164L35.0111 35.2348L34.7721 35.5038L34.4732 35.713L34.0249 35.8923L33.4869 36.0119L32.9788 36.0716L32.4707 36.1015H31.1557L28.9141 36.0119L28.2566 35.982H27.2404L26.8519 36.0716L26.5829 36.251L26.4334 36.4303L26.3139 36.759L26.1644 37.6856V41.3318V42.5299V43.1593V46.7783V47.9022L25.9919 47.7277L9.4045 37.0417V35.613H8.13097V31.5508H10.1558V26.4734H8.13097V20.2621H12.1125V19.3657H14.2183V16.827H12.1125V16.827H8.13097V14.2874H9.64819V11.241H8.13097V5.14551H7.37305V4.01406H9.5734V2.4039L9.87576 2.23897L10.7724 1.82055L11.5495 1.52167L12.6254 1.16302L13.4921 0.923922L14.598 0.684822L15.7337 0.505497L16.7798 0.385947L17.6764 0.326172ZM11.6798 2.61016H14.2185V5.14885H11.6798V2.61016ZM13.0566 6.45391H9.23841V9.09779H13.0566V6.45391ZM9.14075 32.5662H11.1717V34.5972H9.14075V32.5662ZM10.1564 21.3953H13.7105V23.934H10.1564V21.3953ZM13.7107 30.0281H11.172V31.5513H13.7107V30.0281Z" fill="#E5E5E5"/>
<rect x="7.10931" y="9.71783" width="4.0619" height="2.53868" fill="#E5E5E5"/>
<rect x="9.64838" y="16.3184" width="3.04642" height="4.0619" fill="#E5E5E5"/>
<rect x="4.5683" y="13.7803" width="2.41175" height="1.66998" fill="#E5E5E5"/>
<rect x="1.01556" y="17.8409" width="1.52321" height="1.52321" fill="#E5E5E5"/>
<rect x="3.04681" y="26.4727" width="2.03095" height="2.03095" fill="#E5E5E5"/>
<rect x="-6.10352e-05" y="21.9044" width="1.47995" height="1.66998" fill="#E5E5E5"/>
<rect x="4.5683" y="31.5499" width="2.53868" height="1.52321" fill="#E5E5E5"/>
<rect x="6.09369" y="27.4883" width="3.04642" height="3.04642" fill="#E5E5E5"/>
<rect x="2.539" y="22.919" width="2.41175" height="1.66998" fill="#E5E5E5"/>
<rect x="2.03119" y="9.71783" width="1.01547" height="1.01547" fill="#E5E5E5"/>
<rect x="4.16205" y="5.67975" width="2.31159" height="1.79096" fill="#E5E5E5"/>
<rect x="1.01556" y="12.7637" width="2.39241" height="1.79096" fill="#E5E5E5"/>
<rect x="3.94916" y="9.72174" width="2.39241" height="1.79096" fill="#E5E5E5"/>
<rect x="4.06049" y="17.334" width="3.55416" height="3.04642" fill="#E5E5E5"/>
<rect x="6.09369" y="22.4112" width="3.04642" height="2.53868" fill="#E5E5E5"/>
</svg>
