<svg width="97" height="41" viewBox="0 0 97 41" fill="none" xmlns="http://www.w3.org/2000/svg">
<g clip-path="url(#clip0_2013_8380)">
<path d="M22.5978 12.4164L22.5924 11.8738C22.5369 5.32057 17.4555 -0.00976562 11.2693 -0.00976562C5.08306 -0.00976562 -0.000183105 5.32236 -0.000183105 11.8774C-0.000183105 18.4325 5.05442 23.6589 11.2693 23.6589C15.5056 23.6589 19.3319 21.2597 21.2531 17.3957L20.2898 16.9159C18.5513 20.411 15.0938 22.5828 11.2693 22.5828C8.65871 22.5828 6.27554 21.5461 4.47071 19.8452V12.4146H22.5978V12.4164ZM19.0902 11.3403L19.0472 4.8998C20.4599 6.65629 21.3641 8.89263 21.4984 11.3403H19.0902ZM17.964 3.73597L18.0141 11.3403H4.47071V3.83087C6.27554 2.11378 8.65871 1.06633 11.2693 1.06633C13.8798 1.06633 16.1645 2.07438 17.964 3.73597ZM1.07591 11.8774C1.07591 9.2758 1.9461 6.88727 3.39462 5.01977V18.667C1.9461 16.8174 1.07591 14.4522 1.07591 11.8774Z" fill="#E5E5E5"/>
<path d="M63.115 17.4844L55.7757 0.551595H54.603L62.5224 18.8237L61.2995 21.59L52.1804 0.549805H51.0076L60.7999 23.1442L61.7847 23.1478L71.7829 0.551595H70.6065L63.115 17.4844Z" fill="#E5E5E5"/>
<path d="M37.3633 0.0144858C33.7142 0.0144858 30.2174 1.83185 28.4573 4.64653L29.3687 5.2177C30.9139 2.75038 34.126 1.09058 37.3633 1.09058C39.7876 1.09058 41.5817 1.52567 42.9049 2.33856V10.2812C42.2388 10.2759 40.425 10.2651 37.5728 10.2848C34.0741 10.3063 29.8646 10.7987 28.3481 14.4334C27.4851 16.5015 27.6587 18.822 28.8047 20.4871C29.1216 20.9473 29.5065 21.3663 29.9488 21.7333C31.4439 22.9688 33.5692 23.6617 35.938 23.6832C36.0025 23.6832 36.0669 23.6832 36.1296 23.6832C38.8046 23.6832 40.8118 23.1263 42.4322 21.9392C42.5951 21.8211 42.7491 21.6886 42.9049 21.5597V23.146H43.981V3.17831C45.8539 5.02969 46.3588 8.03416 46.3588 11.8891V23.1442H47.4349V11.7656C47.4188 5.64563 46.1565 0.0126953 37.3633 0.0126953V0.0144858ZM29.6892 19.8748C28.7492 18.5068 28.6149 16.5803 29.3382 14.8453C29.75 13.8569 30.4304 13.1496 31.2648 12.6376V21.3555C31.0482 21.2177 30.8369 21.0673 30.6328 20.899C30.2675 20.5964 29.9506 20.2526 29.6892 19.873V19.8748ZM42.9049 20.1201C42.554 20.4621 42.1869 20.7844 41.7966 21.0708C40.3337 22.1416 38.4823 22.6161 35.947 22.6053C35.0893 22.5964 33.7017 22.4782 32.3409 21.9142V12.1147C33.9327 11.5024 35.8485 11.3699 37.5781 11.3591C40.4394 11.3412 42.2496 11.352 42.9049 11.3573V20.1201Z" fill="#E5E5E5"/>
<path d="M85.1931 22.5817C82.6076 22.5817 80.2459 21.5647 78.4483 19.8924V12.4134H96.5234L96.518 11.8709C96.4607 5.31764 91.3811 -0.0126953 85.1931 -0.0126953C79.0051 -0.0126953 73.9236 5.31943 73.9236 11.8745C73.9236 18.4295 78.9782 23.656 85.1931 23.656C89.4294 23.656 93.2557 21.2567 95.177 17.3928L94.2137 16.913C92.4751 20.408 89.0176 22.5799 85.1913 22.5799L85.1931 22.5817ZM93.014 11.3391L92.9711 4.89866C94.3838 6.65515 95.288 8.89149 95.4223 11.3391H93.0122H93.014ZM91.8878 3.73483L91.9379 11.3391H78.4465V3.78139C80.2459 2.09294 82.6076 1.06519 85.1913 1.06519C87.775 1.06519 90.0865 2.07324 91.8878 3.73662V3.73483ZM74.9979 11.8763C74.9979 9.24422 75.8914 6.82883 77.3704 4.95059V18.7321C75.8914 16.8736 74.9979 14.4815 74.9979 11.8763Z" fill="#E5E5E5"/>
<path d="M6.44776 35.0547H7.17112L5.7244 40.1326H5.00103L3.67606 36.0144L2.36541 40.1326H1.66353L0.195312 35.0547H0.918677L2.03595 39.0296L3.31079 35.0547H4.04848L5.35197 39.0726L6.44776 35.0547Z" fill="#E5E5E5"/>
<path d="M12.0777 40.1306V37.8746H9.48508V40.1306H8.7832V35.0527H9.48508V37.2228H12.0777V35.0527H12.7796V40.1306H12.0777Z" fill="#E5E5E5"/>
<path d="M14.9297 40.1306V35.0527H18.0165V35.7045H15.6316V37.2658H17.7945V37.9247H15.6316V39.4789H18.0165V40.1306H14.9297Z" fill="#E5E5E5"/>
<path d="M21.4174 38.0556H20.6583V40.1326H19.9492V35.0547H21.8615C22.8212 35.0547 23.4156 35.7279 23.4156 36.5659C23.4156 37.2964 22.9501 37.8622 22.1838 38.0054L23.3942 40.1326H22.5777L21.4174 38.0556ZM21.7326 37.4253C22.3055 37.4253 22.6923 37.0887 22.6923 36.5659C22.6923 36.043 22.3055 35.6849 21.7326 35.6849H20.6583V37.4253H21.7326Z" fill="#E5E5E5"/>
<path d="M25.2402 40.1306V35.0527H28.3271V35.7045H25.9421V37.2658H28.105V37.9247H25.9421V39.4789H28.3271V40.1306H25.2402Z" fill="#E5E5E5"/>
<path d="M34.5685 35.0547C35.5354 35.0547 36.1012 35.6277 36.1012 36.4298C36.1012 36.9741 35.786 37.3609 35.342 37.5256C35.9221 37.6688 36.2587 38.1845 36.2587 38.7503C36.2587 39.5524 35.6213 40.1326 34.6902 40.1326H32.9141V35.0547H34.5685ZM34.4897 37.2749C35.0555 37.2749 35.3921 36.9383 35.3921 36.4656C35.3921 35.9929 35.0412 35.6706 34.4611 35.6706H33.6159V37.2749H34.4897ZM34.59 39.5148C35.1558 39.5148 35.5425 39.1997 35.5425 38.7055C35.5425 38.2114 35.2346 37.8747 34.6186 37.8747H33.6159V39.5148H34.59Z" fill="#E5E5E5"/>
<path d="M38.082 40.1306V35.0527H41.1689V35.7045H38.7839V37.2658H40.9468V37.9247H38.7839V39.4789H41.1689V40.1306H38.082Z" fill="#E5E5E5"/>
<path d="M46.0693 38.7145H43.8204L43.2833 40.1326H42.5312L44.5509 35.0547H45.3603L47.3799 40.1326H46.6208L46.0693 38.7145ZM44.0711 38.0627H45.8186L44.9377 35.7852L44.0711 38.0627Z" fill="#E5E5E5"/>
<path d="M48.7754 38.3994V35.0547H49.4701V38.3779C49.4701 39.1514 49.8927 39.5883 50.6017 39.5883C51.3107 39.5883 51.7261 39.1514 51.7261 38.3779V35.0547H52.428V38.3994C52.428 39.5954 51.633 40.24 50.6017 40.24C49.5704 40.24 48.7754 39.5954 48.7754 38.3994Z" fill="#E5E5E5"/>
<path d="M56.329 35.7064V40.1326H55.6271V35.7064H53.9297V35.0547H58.0264V35.7064H56.329Z" fill="#E5E5E5"/>
<path d="M59.1719 35.0547H60.017L61.3348 37.3179L62.6526 35.0547H63.4548L61.6643 37.9625V40.1326H60.9624V37.9625L59.1719 35.0547Z" fill="#E5E5E5"/>
<path d="M69.3361 35.0547C70.3029 35.0547 70.8687 35.6277 70.8687 36.4298C70.8687 36.9741 70.5536 37.3609 70.1096 37.5256C70.6897 37.6688 71.0263 38.1845 71.0263 38.7503C71.0263 39.5524 70.3889 40.1326 69.4578 40.1326H67.6816V35.0547H69.3361ZM69.2573 37.2749C69.8231 37.2749 70.1597 36.9383 70.1597 36.4656C70.1597 35.9929 69.8088 35.6706 69.2286 35.6706H68.3835V37.2749H69.2573ZM69.3576 39.5148C69.9234 39.5148 70.3101 39.1997 70.3101 38.7055C70.3101 38.2114 70.0021 37.8747 69.3862 37.8747H68.3835V39.5148H69.3576Z" fill="#E5E5E5"/>
<path d="M72.8555 40.1306V35.0527H75.9423V35.7045H73.5573V37.2658H75.7203V37.9247H73.5573V39.4789H75.9423V40.1306H72.8555Z" fill="#E5E5E5"/>
<path d="M81.6715 40.1306L81.6071 39.4144C81.3851 39.8155 80.8336 40.238 79.9813 40.238C78.7065 40.238 77.5176 39.307 77.5176 37.5881C77.5176 35.8692 78.7781 34.9453 80.0315 34.9453C81.1344 34.9453 81.9867 35.5612 82.2803 36.478L81.6429 36.7501C81.4137 36.0196 80.8193 35.5899 80.0315 35.5899C79.1219 35.5899 78.2338 36.2416 78.2338 37.5881C78.2338 38.9346 79.0932 39.6006 80.0028 39.6006C81.1344 39.6006 81.5426 38.7985 81.5713 38.2757H79.8094V37.6454H82.2373V40.1306H81.6715Z" fill="#E5E5E5"/>
<path d="M84.1758 40.1306V35.0527H84.892V40.1306H84.1758Z" fill="#E5E5E5"/>
<path d="M90.484 40.1306L87.7409 35.991V40.1306H87.0391V35.0527H87.9773L90.5126 38.9489V35.0527H91.2145V40.1306H90.484Z" fill="#E5E5E5"/>
<path d="M95.9696 36.4308C95.9123 36.0655 95.6044 35.5642 94.8953 35.5642C94.3224 35.5642 93.9141 35.9366 93.9141 36.4093C93.9141 36.7746 94.1362 37.0539 94.5659 37.147L95.3251 37.3117C96.1702 37.4979 96.6429 38.0279 96.6429 38.737C96.6429 39.5248 95.9696 40.241 94.8882 40.241C93.6635 40.241 93.0833 39.4532 92.9902 38.7298L93.6635 38.5149C93.7136 39.0807 94.1147 39.6036 94.881 39.6036C95.5829 39.6036 95.9267 39.2383 95.9267 38.7942C95.9267 38.429 95.676 38.1139 95.1675 38.0064L94.4441 37.8489C93.7208 37.6913 93.2051 37.2186 93.2051 36.4594C93.2051 35.7003 93.9428 34.9482 94.881 34.9482C96.0269 34.9482 96.4853 35.6573 96.5999 36.2088L95.9696 36.4308Z" fill="#E5E5E5"/>
</g>
<defs>
<clipPath id="clip0_2013_8380">
<rect width="96.6426" height="40.2488" fill="white" transform="translate(0 -0.00976562)"/>
</clipPath>
</defs>
</svg>
