<svg width="296" height="33" viewBox="0 0 296 33" fill="none" xmlns="http://www.w3.org/2000/svg">
<path d="M270.002 0.636719L294.674 0.637182L294.674 3.71079L273.491 3.71039L273.491 14.5095L293.386 14.5099L292.161 17.4797L273.491 17.4793L273.49 28.5484L295.732 28.5489L295.732 31.6017L270.001 31.6012L270.002 0.636719Z" fill="#E5E5E5"/>
<path d="M212.582 0.635742L217.462 0.635834L238.084 26.928L238.085 0.636221L241.491 0.636285L241.49 31.6008L237.461 31.6007L215.988 4.24937L215.987 31.6003L212.581 31.6002L212.582 0.635742Z" fill="#E5E5E5"/>
<path d="M160.48 0.634766L185.152 0.635229L185.152 3.70883L163.969 3.70844L163.969 14.5076L183.865 14.508L182.639 17.4777L163.969 17.4774L163.969 28.5465L186.211 28.5469L186.211 31.5997L160.48 31.5993L160.48 0.634766Z" fill="#E5E5E5"/>
<path d="M113.32 0.632812L116.809 0.632878L116.809 28.5445L137.099 28.5449L137.099 31.5978L113.32 31.5973L113.32 0.632812Z" fill="#E5E5E5"/>
<path d="M56.858 27.5055C53.5214 24.5149 51.8531 20.7213 51.8532 16.1248C51.8533 11.5144 53.5217 7.71393 56.8584 4.72346C60.209 1.71914 64.4664 0.217034 69.6306 0.217131C74.7532 0.217227 78.9898 1.7195 82.3403 4.72394C85.6907 7.72838 87.3659 11.5289 87.3658 16.1254C87.3657 20.7082 85.6904 24.5017 82.3398 27.506C78.9893 30.5103 74.7526 32.0124 69.63 32.0123C64.4658 32.0122 60.2084 30.51 56.858 27.5055ZM59.4128 6.96641C56.7822 9.30618 55.4668 12.359 55.4668 16.1249C55.4667 19.863 56.7819 22.9228 59.4124 25.3042C62.0568 27.6579 65.4627 28.8348 69.63 28.8349C73.7974 28.835 77.1825 27.6582 79.7855 25.3046C82.4299 22.9094 83.7522 19.8497 83.7522 16.1254C83.7523 12.3734 82.4302 9.3205 79.7858 6.96679C77.1968 4.58539 73.8117 3.39465 69.6305 3.39458C65.4493 3.3945 62.0434 4.58511 59.4128 6.96641Z" fill="#E5E5E5"/>
<path d="M27.3924 3.02094L26.0632 6.11529C22.1866 4.30151 18.13 3.39458 13.8935 3.3945C7.41396 3.39438 4.17418 5.1388 4.17412 8.62776C4.17406 11.3968 6.42386 13.0582 10.9235 13.6121L18.8359 14.5468C25.2462 15.3084 28.4513 18.1675 28.4512 23.124C28.4511 29.0497 24.069 32.0125 15.3051 32.0123C9.68401 32.0122 4.58213 30.9114 -0.000550656 28.7099L1.43248 25.3041C6.25052 27.5748 10.9578 28.7102 15.5544 28.7102C21.7985 28.7104 24.9206 26.8967 24.9207 23.2693C24.9207 20.3203 22.5394 18.5619 17.7767 17.9942L9.86428 17.0595C6.91529 16.7133 4.63779 15.8203 3.03179 14.3804C1.43963 12.9266 0.643577 11.0367 0.643621 8.71076C0.643672 5.98328 1.77208 3.88577 4.02886 2.41824C6.28563 0.950704 9.50462 0.216975 13.6858 0.217054C18.6978 0.217148 23.2666 1.15178 27.3924 3.02094Z" fill="#E5E5E5"/>
</svg>
