<svg width="177" height="44" viewBox="0 0 177 44" fill="none" xmlns="http://www.w3.org/2000/svg">
<path d="M10.8529 9.41312V9.44892H11.4257L21.5569 28.0646L31.6523 9.44892H32.2251V9.41312L37.5592 9.44892V32.4679H32.2251V17.3964L24.1345 32.4679H18.9435L10.8529 17.3964V32.4679H5.51879V9.44892L10.8529 9.41312ZM41.8904 18.363C43.6565 16.7878 46.055 16.0002 49.086 16.0002C50.4703 16.0002 51.7591 16.1911 52.9524 16.573C54.1695 16.931 55.2674 17.4918 56.2459 18.2556C57.2244 18.9954 57.9285 19.9501 58.3581 21.1195C58.7877 22.2651 59.0025 23.4465 59.0025 24.6636C59.0025 25.0694 58.9786 25.499 58.9309 25.9524H44.3247C44.5395 26.8355 45.0884 27.5515 45.9715 28.1004C46.8784 28.6493 47.9524 28.9238 49.1934 28.9238C49.8856 28.9238 50.5061 28.876 51.055 28.7806C51.6039 28.6851 52.0216 28.5777 52.308 28.4584C52.5944 28.3152 52.8211 28.1839 52.9882 28.0646C53.1791 27.9214 53.2984 27.802 53.3462 27.7066L53.4178 27.5634H58.7161C58.6922 27.7066 58.6325 27.8975 58.5371 28.1362C58.4416 28.3748 58.1791 28.7925 57.7495 29.3892C57.3199 29.9858 56.7829 30.5228 56.1385 31.0001C55.518 31.4536 54.5872 31.8712 53.3462 32.2531C52.129 32.635 50.7328 32.8259 49.1576 32.8259C46.2221 32.8259 43.8355 32.0622 41.9978 30.5347C40.1601 29.0073 39.2412 26.9787 39.2412 24.4488C39.2412 21.9668 40.1243 19.9381 41.8904 18.363ZM53.9905 22.5873C53.9428 21.752 53.4655 21.0956 52.5586 20.6183C51.6517 20.141 50.5061 19.9023 49.1218 19.9023C47.8569 19.9023 46.7949 20.1529 45.9357 20.6541C45.1004 21.1553 44.5753 21.7997 44.3605 22.5873H53.9905ZM59.2617 16.3582H62.0183V11.6327H67.245V16.3582H73.2235V20.5109H67.2808V26.919C67.2808 27.3963 67.3762 27.7304 67.5672 27.9214C67.7581 28.1123 68.0922 28.2078 68.5695 28.2078H73.2593V32.4679H68.5695C66.0159 32.4679 64.2856 32.1099 63.3786 31.3939C62.4717 30.6779 62.0183 29.1863 62.0183 26.919V20.5109H59.2617V16.3582ZM74.3039 27.9214C74.3755 24.413 78.8742 22.4799 87.8002 22.1219H88.3014L88.8384 22.0861V21.9071C88.8384 20.4035 87.3945 19.6517 84.5067 19.6517C83.8146 19.6517 83.194 19.7114 82.6451 19.8307C82.1201 19.9262 81.7263 20.0575 81.4637 20.2245C81.2012 20.3677 80.9864 20.5228 80.8193 20.6899C80.6761 20.8331 80.5807 20.9644 80.533 21.0837L80.4972 21.2269H75.2347L75.4852 20.2961C76.2728 18.3391 78.0389 17.0384 80.7835 16.394C81.9053 16.1315 83.1582 16.0002 84.5425 16.0002C87.5735 16.0002 89.9124 16.5372 91.5591 17.6112C93.2059 18.6851 94.0293 20.1291 94.0293 21.9429L94.0651 26.2388V27.0264C94.0651 27.4799 94.1367 27.7901 94.2799 27.9572C94.4231 28.1242 94.6618 28.2078 94.9959 28.2078H95.4613V32.4679H94.9959C93.2775 32.4679 91.9768 32.3008 91.0938 31.9667C90.2346 31.6326 89.6379 31.0359 89.3038 30.1767C87.657 31.9428 85.0198 32.8259 81.3921 32.8259C78.91 32.8259 77.1081 32.3724 75.9864 31.4655C74.8647 30.5586 74.3039 29.4011 74.3039 27.993C74.3039 27.9691 74.3039 27.9452 74.3039 27.9214ZM79.8528 27.9214C79.8528 28.7328 80.6762 29.1624 82.3229 29.2102C82.4184 29.2102 82.5258 29.2102 82.6451 29.2102C84.0294 29.2102 85.4017 28.8999 86.762 28.2794C88.1224 27.6589 88.8145 26.7997 88.8384 25.7018V25.0932C87.8122 25.1171 86.8694 25.1768 86.0103 25.2722C85.1511 25.3438 84.1964 25.4751 83.1463 25.666C82.1201 25.857 81.3086 26.1433 80.7119 26.5252C80.1392 26.8832 79.8528 27.3247 79.8528 27.8498C79.8528 27.8736 79.8528 27.8975 79.8528 27.9214ZM102.693 9.44892V18.542C103.958 17.0145 105.736 16.1911 108.027 16.0718C108.337 16.0479 108.647 16.036 108.958 16.036C111.893 16.036 114.28 16.8117 116.117 18.363C117.955 19.9143 118.874 21.9429 118.874 24.4488C118.874 27.0264 117.967 29.067 116.153 30.5705C114.363 32.0502 112.013 32.7901 109.101 32.7901C108.743 32.7901 108.385 32.7782 108.027 32.7543C105.712 32.635 103.898 31.7519 102.585 30.1051V32.4679H97.3944V9.44892H102.693ZM102.621 24.413C102.621 25.8928 103.194 26.9906 104.34 27.7066C105.509 28.3987 106.834 28.7448 108.313 28.7448C109.769 28.7448 110.998 28.3868 112.001 27.6708C113.003 26.9309 113.504 25.857 113.504 24.4488C113.504 23.0646 113.003 21.9906 112.001 21.2269C110.998 20.4632 109.769 20.0813 108.313 20.0813C107.621 20.0813 106.977 20.141 106.38 20.2603C105.783 20.3797 105.187 20.5944 104.59 20.9047C103.993 21.1911 103.516 21.6326 103.158 22.2293C102.8 22.8259 102.621 23.5539 102.621 24.413ZM125.55 16.3582V19.2937C126.552 17.3367 128.163 16.3582 130.383 16.3582H133.748V20.5109H130.49C128.462 20.5109 127.149 21.024 126.552 22.0503C125.956 23.0527 125.657 25.0932 125.657 28.172V32.4679H120.359V16.3582H125.55ZM136.464 18.4346C138.373 16.8117 140.986 16.0002 144.304 16.0002C147.645 16.0002 150.27 16.8117 152.18 18.4346C154.113 20.0575 155.079 22.0503 155.079 24.413C155.079 26.7997 154.113 28.8044 152.18 30.4273C150.27 32.0264 147.645 32.8259 144.304 32.8259C140.986 32.8259 138.361 32.0144 136.428 30.3915C134.519 28.7686 133.564 26.7758 133.564 24.413C133.564 22.0503 134.531 20.0575 136.464 18.4346ZM140.33 27.4918C141.261 28.3748 142.586 28.8164 144.304 28.8164C146.022 28.8164 147.347 28.3868 148.278 27.5276C149.232 26.6445 149.71 25.6064 149.71 24.413C149.71 23.1243 149.244 22.0742 148.313 21.2627C147.383 20.4274 146.046 20.0097 144.304 20.0097C142.538 20.0097 141.201 20.4155 140.294 21.2269C139.387 22.0384 138.934 23.1004 138.934 24.413C138.934 25.6064 139.399 26.6326 140.33 27.4918ZM161.375 26.8474V27.098C161.375 27.1935 161.447 27.3725 161.59 27.635C161.733 27.8736 161.924 28.1004 162.163 28.3152C162.425 28.5061 162.855 28.6851 163.451 28.8522C164.048 29.0192 164.764 29.1028 165.599 29.1028C168.272 29.1028 169.609 28.5538 169.609 27.456C169.609 27.0264 169.167 26.6923 168.284 26.4536C167.401 26.1911 166.327 25.9763 165.062 25.8092C163.821 25.6422 162.557 25.4393 161.268 25.2006C160.003 24.9381 158.905 24.4966 157.974 23.8761C157.067 23.2555 156.59 22.4441 156.542 21.4417C156.542 21.3701 156.542 21.2985 156.542 21.2269C156.542 19.7472 157.33 18.5062 158.905 17.5038C160.504 16.5014 162.664 16.0002 165.385 16.0002C169.919 16.0002 172.843 17.1696 174.155 19.5085C174.49 20.1291 174.657 20.6422 174.657 21.0479C174.657 21.0956 174.657 21.1553 174.657 21.2269H169.394C169.394 21.1792 169.382 21.1195 169.358 21.0479C169.335 20.9763 169.251 20.845 169.108 20.6541C168.965 20.4632 168.762 20.2961 168.499 20.1529C168.261 20.0097 167.867 19.8785 167.318 19.7591C166.793 19.6398 166.16 19.5801 165.42 19.5801C164.394 19.5801 163.535 19.7353 162.843 20.0455C162.175 20.3319 161.841 20.6899 161.841 21.1195C161.841 21.1195 161.841 21.1314 161.841 21.1553C161.864 21.5372 162.33 21.8355 163.237 22.0503C164.167 22.2412 165.277 22.4202 166.566 22.5873C167.855 22.7305 169.144 22.9333 170.432 23.1959C171.721 23.4584 172.819 23.9357 173.726 24.6278C174.657 25.2961 175.146 26.1672 175.194 27.2412C175.194 27.2889 175.194 27.3367 175.194 27.3844C175.194 29.0073 174.382 30.3199 172.759 31.3223C171.136 32.3247 168.678 32.8259 165.385 32.8259C160.898 32.8259 157.998 31.5132 156.685 28.888C156.327 28.1481 156.148 27.4679 156.148 26.8474H161.375Z" fill="#E5E5E5"/>
<path d="M2.97519 4.98206L3.01944 5.44526C3.13737 6.68159 4.16238 7.66811 5.47004 7.8039C5.66792 7.82444 5.66792 8.09602 5.47004 8.11656C4.1625 8.25235 3.13749 9.23887 3.01944 10.4752L2.97519 10.9384C2.95704 11.1293 2.66141 11.1293 2.64326 10.9384L2.59902 10.4752C2.48108 9.23887 1.45607 8.25235 0.148414 8.11656C-0.0494713 8.09602 -0.0494713 7.82444 0.148414 7.8039C1.45595 7.66811 2.48096 6.68159 2.59902 5.44526L2.64326 4.98206C2.66141 4.79114 2.95704 4.79114 2.97519 4.98206Z" fill="#E5E5E5"/>
</svg>
