<svg width="132" height="36" viewBox="0 0 132 36" fill="none" xmlns="http://www.w3.org/2000/svg">
<path d="M43.0078 5.13433C43.0078 4.40865 43.158 3.79558 43.4582 3.29511C43.771 2.79464 44.1777 2.39427 44.6781 2.09399C45.1911 1.7812 45.7666 1.55599 46.4047 1.41836C47.0553 1.28073 47.7247 1.21191 48.4129 1.21191C50.0519 1.21191 51.4031 1.58101 52.4666 2.3192C53.5426 3.04488 54.212 4.1459 54.4748 5.62228H52.1101C51.9849 5.19688 51.7973 4.84656 51.547 4.5713C51.3093 4.29604 51.0215 4.07709 50.6837 3.91444C50.3459 3.75179 49.9706 3.63918 49.5577 3.57662C49.1448 3.51406 48.7069 3.48278 48.244 3.48278C47.8436 3.48278 47.462 3.50781 47.0991 3.55785C46.7363 3.59539 46.4172 3.67046 46.142 3.78306C45.8667 3.89567 45.6478 4.04581 45.4851 4.23349C45.335 4.42116 45.2599 4.65888 45.2599 4.94665C45.2599 5.30949 45.3913 5.591 45.654 5.79119C45.9293 5.99138 46.2796 6.15403 46.705 6.27915C47.1429 6.39175 47.6371 6.47933 48.1876 6.54189C48.7382 6.59194 49.3012 6.6545 49.8767 6.72957C50.4523 6.80464 51.0153 6.91098 51.5658 7.04861C52.1163 7.17373 52.6043 7.36766 53.0297 7.63041C53.4676 7.88064 53.8179 8.2122 54.0806 8.62509C54.3434 9.03797 54.4748 9.56972 54.4748 10.2203C54.4748 10.946 54.3121 11.5716 53.9868 12.0971C53.6615 12.6101 53.2299 13.0355 52.6919 13.3733C52.1664 13.7111 51.5658 13.9613 50.8902 14.124C50.2271 14.2741 49.5577 14.3492 48.882 14.3492C48.0688 14.3492 47.3243 14.2428 46.6487 14.0301C45.9856 13.8174 45.4038 13.5172 44.9033 13.1293C44.4029 12.7414 43.99 12.2785 43.6647 11.7405C43.3394 11.19 43.1204 10.5894 43.0078 9.93881H45.3725C45.5727 10.6144 46.0169 11.1462 46.705 11.5341C47.4057 11.9094 48.3378 12.0971 49.5014 12.0971C49.7891 12.0971 50.0894 12.0846 50.4022 12.0595C50.715 12.022 51.009 11.9532 51.2843 11.8531C51.5595 11.753 51.7848 11.6091 51.9599 11.4214C52.1351 11.2338 52.2227 10.9835 52.2227 10.6707C52.2227 10.3079 52.0913 10.0264 51.8285 9.82621C51.5658 9.61351 51.2155 9.45086 50.7776 9.33825C50.3522 9.21313 49.8642 9.1193 49.3137 9.05674C48.7632 8.99418 48.1939 8.91911 47.6059 8.83153C47.0303 8.74395 46.4673 8.63134 45.9168 8.49371C45.3663 8.34357 44.8721 8.13713 44.4341 7.87438C44.0087 7.59913 43.6647 7.24254 43.4019 6.80464C43.1392 6.36673 43.0078 5.80996 43.0078 5.13433Z" fill="#E5E5E5"/>
<path d="M55.7455 9.6573C55.7455 9.00669 55.8644 8.39987 56.1021 7.83685C56.3523 7.26131 56.6902 6.76084 57.1156 6.33545C57.541 5.91005 58.0352 5.57849 58.5982 5.34077C59.1737 5.09054 59.7868 4.96542 60.4374 4.96542C61.088 4.96542 61.6948 5.09054 62.2579 5.34077C62.8334 5.57849 63.3339 5.91005 63.7593 6.33545C64.1847 6.76084 64.5162 7.26131 64.7539 7.83685C65.0042 8.39987 65.1293 9.00669 65.1293 9.6573C65.1293 10.3079 65.0042 10.921 64.7539 11.4965C64.5162 12.0595 64.1847 12.5538 63.7593 12.9791C63.3339 13.4045 62.8334 13.7424 62.2579 13.9926C61.6948 14.2303 61.088 14.3492 60.4374 14.3492C59.7868 14.3492 59.1737 14.2303 58.5982 13.9926C58.0352 13.7424 57.541 13.4045 57.1156 12.9791C56.6902 12.5538 56.3523 12.0595 56.1021 11.4965C55.8644 10.921 55.7455 10.3079 55.7455 9.6573ZM57.9976 9.6573C57.9976 9.99511 58.0602 10.3142 58.1853 10.6144C58.3104 10.9022 58.4856 11.1587 58.7108 11.3839C58.936 11.6091 59.1925 11.7843 59.4803 11.9094C59.7805 12.0345 60.0996 12.0971 60.4374 12.0971C60.7752 12.0971 61.0943 12.0345 61.3946 11.9094C61.6948 11.7843 61.9513 11.6091 62.164 11.3839C62.3892 11.1587 62.5644 10.9022 62.6895 10.6144C62.8146 10.3142 62.8772 9.99511 62.8772 9.6573C62.8772 9.31948 62.8146 9.00669 62.6895 8.71892C62.5644 8.41864 62.3892 8.1559 62.164 7.93069C61.9513 7.70548 61.6948 7.53031 61.3946 7.4052C61.0943 7.28008 60.7752 7.21752 60.4374 7.21752C60.0996 7.21752 59.7805 7.28008 59.4803 7.4052C59.1925 7.53031 58.936 7.70548 58.7108 7.93069C58.4856 8.1559 58.3104 8.41864 58.1853 8.71892C58.0602 9.00669 57.9976 9.31948 57.9976 9.6573Z" fill="#E5E5E5"/>
<path d="M66.2656 9.6573C66.2656 9.00669 66.3845 8.39987 66.6222 7.83685C66.8724 7.26131 67.2102 6.76084 67.6356 6.33545C68.061 5.91005 68.5552 5.57849 69.1183 5.34077C69.6938 5.09054 70.3069 4.96542 70.9575 4.96542C71.5455 4.96542 72.1023 5.07177 72.6278 5.28447C73.1533 5.48465 73.6225 5.76617 74.0354 6.129C74.4482 6.47933 74.7861 6.89847 75.0488 7.38643C75.3241 7.87438 75.5055 8.39987 75.5931 8.9629H73.2659C73.1283 8.46243 72.8468 8.04329 72.4214 7.70548C71.996 7.36766 71.508 7.19875 70.9575 7.19875C70.6197 7.19875 70.3006 7.26757 70.0003 7.4052C69.7001 7.53031 69.4373 7.70548 69.2121 7.93069C68.9994 8.14339 68.8242 8.39987 68.6866 8.70015C68.5615 9.00044 68.4989 9.31948 68.4989 9.6573C68.4989 9.99511 68.5615 10.3142 68.6866 10.6144C68.8242 10.9147 68.9994 11.1775 69.2121 11.4027C69.4373 11.6154 69.7001 11.7905 70.0003 11.9282C70.3006 12.0533 70.6197 12.1158 70.9575 12.1158C71.5205 12.1158 72.0085 11.9532 72.4214 11.6279C72.8468 11.2901 73.1283 10.8709 73.2659 10.3705H75.5931C75.5055 10.9335 75.3241 11.459 75.0488 11.9469C74.7861 12.4224 74.4482 12.8415 74.0354 13.2044C73.6225 13.5547 73.1533 13.8362 72.6278 14.0489C72.1023 14.2491 71.5455 14.3492 70.9575 14.3492C70.3069 14.3492 69.6938 14.2303 69.1183 13.9926C68.5552 13.7424 68.061 13.4045 67.6356 12.9791C67.2102 12.5538 66.8724 12.0595 66.6222 11.4965C66.3845 10.921 66.2656 10.3079 66.2656 9.6573Z" fill="#E5E5E5"/>
<path d="M76.8956 4.96542H79.1477V14.3492H76.8956V4.96542Z" fill="#E5E5E5"/>
<path d="M88.7089 12.4161C88.3461 12.9917 87.8519 13.4608 87.2263 13.8237C86.6007 14.174 85.9063 14.3492 85.1431 14.3492C84.4925 14.3492 83.8794 14.2303 83.3039 13.9926C82.7409 13.7424 82.2466 13.4045 81.8212 12.9791C81.3958 12.5538 81.058 12.0595 80.8078 11.4965C80.5701 10.921 80.4512 10.3079 80.4512 9.6573C80.4512 9.00669 80.5701 8.39987 80.8078 7.83685C81.058 7.26131 81.3958 6.76084 81.8212 6.33545C82.2466 5.91005 82.7409 5.57849 83.3039 5.34077C83.8794 5.09054 84.4925 4.96542 85.1431 4.96542C85.9063 4.96542 86.6007 5.14684 87.2263 5.50968C87.8519 5.86 88.3461 6.32294 88.7089 6.89847V4.96542H90.961V14.4242H88.7089V12.4161ZM82.7221 9.6573C82.7221 9.99511 82.7846 10.3142 82.9098 10.6144C83.0349 10.9022 83.2038 11.1587 83.4165 11.3839C83.6417 11.5966 83.8982 11.7655 84.1859 11.8906C84.4862 12.0157 84.8053 12.0783 85.1431 12.0783C85.4809 12.0783 85.7937 12.0157 86.0815 11.8906C86.3817 11.7655 86.6445 11.5966 86.8697 11.3839C87.0949 11.1587 87.2701 10.9022 87.3952 10.6144C87.5203 10.3142 87.5829 9.99511 87.5829 9.6573C87.5829 9.31948 87.5203 9.00669 87.3952 8.71892C87.2701 8.41864 87.0949 8.16215 86.8697 7.94945C86.6445 7.72424 86.3817 7.54908 86.0815 7.42396C85.7937 7.29885 85.4809 7.23629 85.1431 7.23629C84.8053 7.23629 84.4862 7.29885 84.1859 7.42396C83.8982 7.54908 83.6417 7.72424 83.4165 7.94945C83.2038 8.16215 83.0349 8.41864 82.9098 8.71892C82.7846 9.00669 82.7221 9.31948 82.7221 9.6573Z" fill="#E5E5E5"/>
<path d="M92.2359 1.21191H94.488V14.3492H92.2359V1.21191Z" fill="#E5E5E5"/>
<path d="M43.0078 28.4387C43.0078 27.5379 43.1767 26.6871 43.5145 25.8864C43.8649 25.0856 44.3341 24.3912 44.9221 23.8032C45.5227 23.2026 46.2233 22.7334 47.0241 22.3956C47.8248 22.0453 48.6756 21.8701 49.5764 21.8701C50.3647 21.8701 51.1154 22.0015 51.8285 22.2642C52.5417 22.527 53.1798 22.8961 53.7428 23.3715C54.3184 23.8344 54.8001 24.3849 55.1879 25.023C55.5883 25.6486 55.8636 26.3368 56.0137 27.0875H53.649C53.5239 26.6621 53.3299 26.268 53.0672 25.9051C52.8045 25.5423 52.4917 25.2295 52.1288 24.9667C51.7785 24.704 51.3844 24.4976 50.9465 24.3474C50.5211 24.1973 50.0644 24.1222 49.5764 24.1222C48.9759 24.1222 48.4129 24.2348 47.8874 24.46C47.3744 24.6852 46.9177 24.998 46.5173 25.3984C46.1295 25.7863 45.8229 26.2429 45.5977 26.7684C45.3725 27.2814 45.2599 27.8382 45.2599 28.4387C45.2599 29.0393 45.3725 29.6023 45.5977 30.1278C45.8229 30.6408 46.1295 31.0975 46.5173 31.4978C46.9177 31.8857 47.3744 32.1922 47.8874 32.4174C48.4129 32.6427 48.9759 32.7553 49.5764 32.7553C50.0644 32.7553 50.5211 32.6802 50.9465 32.5301C51.3844 32.3799 51.7785 32.1735 52.1288 31.9107C52.4917 31.648 52.8045 31.3352 53.0672 30.9723C53.3299 30.6095 53.5239 30.2154 53.649 29.79H56.0137C55.8636 30.5407 55.5883 31.2351 55.1879 31.8732C54.8001 32.4988 54.3184 33.0493 53.7428 33.5247C53.1798 33.9877 52.5417 34.3505 51.8285 34.6132C51.1154 34.876 50.3647 35.0074 49.5764 35.0074C48.6756 35.0074 47.8248 34.8385 47.0241 34.5006C46.2233 34.1503 45.5227 33.6811 44.9221 33.0931C44.3341 32.4925 43.8649 31.7919 43.5145 30.9911C43.1767 30.1904 43.0078 29.3396 43.0078 28.4387Z" fill="#E5E5E5"/>
<path d="M57.3034 30.3155C57.3034 29.6649 57.4222 29.0581 57.66 28.495C57.9102 27.9195 58.248 27.419 58.6734 26.9936C59.0988 26.5682 59.593 26.2367 60.156 25.999C60.7316 25.7487 61.3447 25.6236 61.9953 25.6236C62.6459 25.6236 63.2527 25.7487 63.8157 25.999C64.3913 26.2367 64.8917 26.5682 65.3171 26.9936C65.7425 27.419 66.0741 27.9195 66.3118 28.495C66.562 29.0581 66.6871 29.6649 66.6871 30.3155C66.6871 30.9661 66.562 31.5792 66.3118 32.1547C66.0741 32.7177 65.7425 33.2119 65.3171 33.6373C64.8917 34.0627 64.3913 34.4006 63.8157 34.6508C63.2527 34.8885 62.6459 35.0074 61.9953 35.0074C61.3447 35.0074 60.7316 34.8885 60.156 34.6508C59.593 34.4006 59.0988 34.0627 58.6734 33.6373C58.248 33.2119 57.9102 32.7177 57.66 32.1547C57.4222 31.5792 57.3034 30.9661 57.3034 30.3155ZM59.5555 30.3155C59.5555 30.6533 59.618 30.9723 59.7432 31.2726C59.8683 31.5604 60.0434 31.8169 60.2687 32.0421C60.4939 32.2673 60.7504 32.4425 61.0381 32.5676C61.3384 32.6927 61.6574 32.7553 61.9953 32.7553C62.3331 32.7553 62.6521 32.6927 62.9524 32.5676C63.2527 32.4425 63.5092 32.2673 63.7219 32.0421C63.9471 31.8169 64.1222 31.5604 64.2474 31.2726C64.3725 30.9723 64.435 30.6533 64.435 30.3155C64.435 29.9777 64.3725 29.6649 64.2474 29.3771C64.1222 29.0768 63.9471 28.8141 63.7219 28.5889C63.5092 28.3637 63.2527 28.1885 62.9524 28.0634C62.6521 27.9383 62.3331 27.8757 61.9953 27.8757C61.6574 27.8757 61.3384 27.9383 61.0381 28.0634C60.7504 28.1885 60.4939 28.3637 60.2687 28.5889C60.0434 28.8141 59.8683 29.0768 59.7432 29.3771C59.618 29.6649 59.5555 29.9777 59.5555 30.3155Z" fill="#E5E5E5"/>
<path d="M67.8968 21.8701H70.1489V35.0074H67.8968V21.8701Z" fill="#E5E5E5"/>
<path d="M71.7272 21.8701H73.9793V35.0074H71.7272V21.8701Z" fill="#E5E5E5"/>
<path d="M75.2828 30.3155C75.2828 29.6649 75.4017 29.0581 75.6394 28.495C75.8896 27.9195 76.2274 27.419 76.6528 26.9936C77.0782 26.5682 77.5725 26.2367 78.1355 25.999C78.711 25.7487 79.3241 25.6236 79.9747 25.6236C80.8005 25.6236 81.5136 25.7737 82.1142 26.074C82.7273 26.3743 83.2215 26.7747 83.5968 27.2751C83.9847 27.7756 84.2599 28.3449 84.4226 28.983C84.5978 29.6211 84.6666 30.2717 84.629 30.9348H77.7601C77.8477 31.4603 78.0979 31.8982 78.5108 32.2485C78.9237 32.5989 79.4117 32.774 79.9747 32.774C80.4752 32.774 80.9131 32.6364 81.2884 32.3611C81.6638 32.0734 81.9203 31.7105 82.0579 31.2726H84.5727C84.4601 31.8106 84.2662 32.3111 83.9909 32.774C83.7157 33.2244 83.3716 33.6186 82.9587 33.9564C82.5584 34.2817 82.1017 34.5382 81.5887 34.7259C81.0757 34.9135 80.5377 35.0074 79.9747 35.0074C79.3241 35.0074 78.711 34.8885 78.1355 34.6508C77.5725 34.4006 77.0782 34.0627 76.6528 33.6373C76.2274 33.2119 75.8896 32.7177 75.6394 32.1547C75.4017 31.5792 75.2828 30.9661 75.2828 30.3155ZM82.0016 29.5085C81.9641 29.2833 81.8827 29.0706 81.7576 28.8704C81.645 28.6702 81.4949 28.495 81.3072 28.3449C81.132 28.1948 80.9256 28.0759 80.6879 27.9883C80.4626 27.9007 80.2249 27.8569 79.9747 27.8569C79.4742 27.8569 79.0301 28.0133 78.6422 28.3261C78.2668 28.6389 78.0291 29.033 77.929 29.5085H82.0016Z" fill="#E5E5E5"/>
<path d="M85.9495 30.3155C85.9495 29.6649 86.0684 29.0581 86.3061 28.495C86.5563 27.9195 86.8941 27.419 87.3195 26.9936C87.7449 26.5682 88.2391 26.2367 88.8022 25.999C89.3777 25.7487 89.9908 25.6236 90.6414 25.6236C91.2294 25.6236 91.7862 25.73 92.3117 25.9427C92.8372 26.1428 93.3064 26.4244 93.7193 26.7872C94.1321 27.1375 94.47 27.5567 94.7327 28.0446C95.008 28.5326 95.1894 29.0581 95.277 29.6211H92.9498C92.8122 29.1206 92.5307 28.7015 92.1053 28.3637C91.6799 28.0258 91.1919 27.8569 90.6414 27.8569C90.3036 27.8569 89.9845 27.9258 89.6842 28.0634C89.384 28.1885 89.1212 28.3637 88.896 28.5889C88.6833 28.8016 88.5081 29.0581 88.3705 29.3583C88.2454 29.6586 88.1828 29.9777 88.1828 30.3155C88.1828 30.6533 88.2454 30.9723 88.3705 31.2726C88.5081 31.5729 88.6833 31.8357 88.896 32.0609C89.1212 32.2736 89.384 32.4487 89.6842 32.5864C89.9845 32.7115 90.3036 32.774 90.6414 32.774C91.2044 32.774 91.6924 32.6114 92.1053 32.2861C92.5307 31.9483 92.8122 31.5291 92.9498 31.0287H95.277C95.1894 31.5917 95.008 32.1172 94.7327 32.6051C94.47 33.0806 94.1321 33.4997 93.7193 33.8625C93.3064 34.2129 92.8372 34.4944 92.3117 34.7071C91.7862 34.9073 91.2294 35.0074 90.6414 35.0074C89.9908 35.0074 89.3777 34.8885 88.8022 34.6508C88.2391 34.4006 87.7449 34.0627 87.3195 33.6373C86.8941 33.2119 86.5563 32.7177 86.3061 32.1547C86.0684 31.5792 85.9495 30.9661 85.9495 30.3155Z" fill="#E5E5E5"/>
<path d="M97.5616 27.8757H96.323V25.6236H97.5616V23.5404H99.8137V25.6236H102.648V27.8757H99.8137V30.6158C99.8137 30.9536 99.8387 31.2539 99.8888 31.5166C99.9513 31.7794 100.083 32.0046 100.283 32.1922C100.483 32.3674 100.765 32.4988 101.127 32.5864C101.503 32.6739 102.01 32.7052 102.648 32.6802V34.9323C101.684 34.9448 100.877 34.8572 100.227 34.6696C99.576 34.4694 99.0505 34.1816 98.6501 33.8062C98.2623 33.4309 97.9808 32.9742 97.8056 32.4362C97.6429 31.8982 97.5616 31.2914 97.5616 30.6158V27.8757Z" fill="#E5E5E5"/>
<path d="M103.947 25.6236H106.199V35.0074H103.947V25.6236Z" fill="#E5E5E5"/>
<path d="M109.87 25.6236L112.366 31.892L115.031 25.6236H117.471L113.567 35.0074H111.183L107.411 25.6236H109.87Z" fill="#E5E5E5"/>
<path d="M117.565 30.3155C117.565 29.6649 117.684 29.0581 117.921 28.495C118.172 27.9195 118.509 27.419 118.935 26.9936C119.36 26.5682 119.854 26.2367 120.417 25.999C120.993 25.7487 121.606 25.6236 122.257 25.6236C123.082 25.6236 123.796 25.7737 124.396 26.074C125.009 26.3743 125.503 26.7747 125.879 27.2751C126.267 27.7756 126.542 28.3449 126.704 28.983C126.88 29.6211 126.948 30.2717 126.911 30.9348H120.042C120.13 31.4603 120.38 31.8982 120.793 32.2485C121.206 32.5989 121.694 32.774 122.257 32.774C122.757 32.774 123.195 32.6364 123.57 32.3611C123.946 32.0734 124.202 31.7105 124.34 31.2726H126.855C126.742 31.8106 126.548 32.3111 126.273 32.774C125.998 33.2244 125.654 33.6186 125.241 33.9564C124.84 34.2817 124.384 34.5382 123.871 34.7259C123.358 34.9135 122.82 35.0074 122.257 35.0074C121.606 35.0074 120.993 34.8885 120.417 34.6508C119.854 34.4006 119.36 34.0627 118.935 33.6373C118.509 33.2119 118.172 32.7177 117.921 32.1547C117.684 31.5792 117.565 30.9661 117.565 30.3155ZM124.283 29.5085C124.246 29.2833 124.165 29.0706 124.04 28.8704C123.927 28.6702 123.777 28.495 123.589 28.3449C123.414 28.1948 123.207 28.0759 122.97 27.9883C122.745 27.9007 122.507 27.8569 122.257 27.8569C121.756 27.8569 121.312 28.0133 120.924 28.3261C120.549 28.6389 120.311 29.033 120.211 29.5085H124.283Z" fill="#E5E5E5"/>
<rect x="106.191" y="22.0684" width="2.57382" height="2.26516" transform="rotate(90 106.191 22.0684)" fill="#E5E5E5"/>
<rect x="131.842" y="32.4355" width="2.57382" height="2.26516" transform="rotate(90 131.842 32.4355)" fill="#E5E5E5"/>
<rect x="79.1387" y="1.21191" width="2.57382" height="2.26516" transform="rotate(90 79.1387 1.21191)" fill="#E5E5E5"/>
<path fill-rule="evenodd" clip-rule="evenodd" d="M17.1464 18.1144L8.69758 18.1144C8.69758 13.3109 4.80354 9.41685 0 9.41685L1.20755e-06 0.967773C9.46976 0.967774 17.1465 8.64446 17.1467 18.1142C26.6164 18.1143 34.2931 25.7911 34.2931 35.2608H25.844C25.844 30.4573 21.95 26.5633 17.1464 26.5633L17.1464 18.1144ZM34.2931 18.1144L25.844 18.1144C25.844 13.3109 21.95 9.41685 17.1464 9.41685L17.1464 0.967773C26.6162 0.967774 34.2931 8.64459 34.2931 18.1144ZM8.69758 35.2608H17.1467C17.1467 25.791 9.46984 18.1142 1.20755e-06 18.1142L0 26.5633C4.80354 26.5633 8.69758 30.4573 8.69758 35.2608Z" fill="#E5E5E5"/>
<path fill-rule="evenodd" clip-rule="evenodd" d="M17.1464 18.1144L8.69758 18.1144C8.69758 13.3109 4.80354 9.41685 0 9.41685L1.20755e-06 0.967773C9.46976 0.967774 17.1465 8.64446 17.1467 18.1142C26.6164 18.1143 34.2931 25.7911 34.2931 35.2608H25.844C25.844 30.4573 21.95 26.5633 17.1464 26.5633L17.1464 18.1144ZM34.2931 18.1144L25.844 18.1144C25.844 13.3109 21.95 9.41685 17.1464 9.41685L17.1464 0.967773C26.6162 0.967774 34.2931 8.64459 34.2931 18.1144ZM8.69758 35.2608H17.1467C17.1467 25.791 9.46984 18.1142 1.20755e-06 18.1142L0 26.5633C4.80354 26.5633 8.69758 30.4573 8.69758 35.2608Z" fill="#E5E5E5"/>
</svg>
