<svg width="198" height="43" viewBox="0 0 198 43" fill="none" xmlns="http://www.w3.org/2000/svg">
<g clip-path="url(#clip0_2013_8330)">
<path d="M33.917 0.0928654C32.7774 -0.0934414 31.6099 0.0132793 30.5214 0.403269C29.4329 0.793258 28.458 1.45407 27.686 2.32529C26.2148 3.99124 25.7574 6.16385 26.1109 8.33822C26.4314 10.3015 26.856 12.2929 26.9513 14.1823C27.0847 17.0297 26.6564 19.8755 25.6915 22.5525C24.8182 24.9749 23.5741 26.8538 20.9091 27.2689C20.7116 27.3006 19.9925 27.3235 19.788 27.3358C19.437 27.336 19.0864 27.3149 18.7379 27.2724C16.0729 26.8555 14.8184 24.9767 13.9486 22.5402C12.9836 19.8626 12.5553 17.0162 12.6888 14.1682C12.7841 12.2859 13.2087 10.2927 13.5275 8.3259C13.881 6.14978 13.4235 3.97893 11.9541 2.30945C11.1802 1.43802 10.2026 0.778382 9.11158 0.39132C8.02053 0.00425765 6.85106 -0.097775 5.71096 0.0946246C2.2922 0.655808 0.0170715 3.72736 -0.00372175 6.94845C-0.012896 8.18939 0.320233 9.40816 0.957966 10.4668C2.02189 12.2436 3.76679 13.5366 5.2899 14.8824C6.29837 15.7796 8.04327 18.3305 8.89752 21.0959C9.41562 22.7707 9.83669 24.4665 10.2543 26.18C10.84 28.5672 11.6474 33.8395 12.1777 36.232C13.2364 41.0241 16.4801 42.1095 19.7291 42.2203H19.8434C23.0924 42.1095 26.3881 41.0223 27.4486 36.2303C27.9771 33.8378 28.7811 28.5619 29.372 26.1782C29.7913 24.4736 30.2106 22.7689 30.7287 21.0941C31.583 18.3287 33.3279 15.7691 34.3346 14.8789C35.8594 13.5314 37.6026 12.2401 38.6665 10.4633C39.3048 9.40479 39.6385 8.18603 39.63 6.94493C39.6126 3.71857 37.3427 0.647012 33.917 0.0928654ZM76.7962 5.84016L65.9057 35.1888H60.3972L49.4669 5.84016H54.5578L63.1523 30.2472L71.7902 5.84016H76.7979H76.7962ZM101.845 22.9853C101.845 23.8578 101.79 24.646 101.677 25.3496H84.1119C84.2505 27.2074 84.9315 28.6992 86.1566 29.825C87.3799 30.9509 88.8823 31.5139 90.6618 31.5139C93.2211 31.5139 95.0284 30.4302 96.0854 28.2629H101.22C100.523 30.4021 99.2581 32.1613 97.4213 33.5405C95.6141 34.8933 93.3615 35.5688 90.6635 35.5688C88.4647 35.5688 86.4893 35.0762 84.7375 34.0911C83.0218 33.0872 81.608 31.6275 80.6481 29.869C79.6743 28.0395 79.1874 25.9284 79.1874 23.5342C79.1874 21.1416 79.6604 19.0429 80.6083 17.2415C81.5804 15.4119 82.9302 14.0046 84.6543 13.0194C86.4061 12.0343 88.4092 11.5417 90.6618 11.5417C92.833 11.5417 94.765 12.0202 96.4631 12.9772C98.1398 13.9142 99.5155 15.3212 100.426 17.0304C101.372 18.7491 101.845 20.7335 101.845 22.9853ZM96.879 21.4653C96.8513 19.6921 96.2257 18.2689 95.0024 17.1993C93.7773 16.1297 92.2612 15.5949 90.4539 15.5949C88.8129 15.5949 87.4077 16.1297 86.2398 17.1993C85.0719 18.2407 84.3753 19.6622 84.1535 21.4653H96.879ZM118.124 11.54C119.934 11.54 121.547 11.9217 122.966 12.6817C124.404 13.4335 125.582 14.6115 126.345 16.0593C127.152 17.5511 127.554 19.3543 127.554 21.4653V35.1871H122.841V22.1831C122.841 20.1002 122.326 18.5099 121.297 17.4104C120.266 16.2845 118.863 15.7216 117.081 15.7216C115.302 15.7216 113.883 16.2845 112.826 17.4104C111.796 18.5081 111.284 20.1002 111.284 22.1831V35.1888H106.525V11.9217H111.282V14.5816C112.082 13.6087 113.097 12.8419 114.245 12.3439C115.471 11.8086 116.792 11.5355 118.126 11.5417L118.124 11.54ZM143.595 35.5688C141.425 35.5688 139.464 35.0762 137.712 34.0911C135.978 33.0969 134.548 31.6358 133.581 29.869C132.579 28.0395 132.079 25.9284 132.079 23.5342C132.079 21.1698 132.593 19.0711 133.622 17.2415C134.606 15.458 136.067 13.994 137.837 13.0194C139.616 12.0343 141.605 11.5417 143.804 11.5417C146.001 11.5417 147.991 12.0343 149.77 13.0194C151.54 13.994 153.001 15.458 153.984 17.2415C155.013 19.0711 155.526 21.1698 155.526 23.5342C155.526 25.8985 155 27.9955 153.943 29.825C152.914 31.6278 151.411 33.1048 149.604 34.0911C147.795 35.0762 145.792 35.5688 143.595 35.5688ZM143.595 31.3872C144.818 31.3872 145.96 31.0917 147.017 30.5006C148.101 29.9095 148.976 29.0228 149.645 27.8407C150.312 26.6585 150.647 25.223 150.647 23.5342C150.647 21.8453 150.326 20.4239 149.687 19.2681C149.046 18.0859 148.197 17.1993 147.14 16.6082C146.093 16.0199 144.915 15.7146 143.719 15.7216C142.496 15.7216 141.356 16.0171 140.299 16.6082C139.27 17.1993 138.448 18.0859 137.838 19.2681C137.225 20.4239 136.92 21.8453 136.92 23.5342C136.92 26.0392 137.544 27.9814 138.796 29.3606C140.075 30.7117 141.675 31.3872 143.596 31.3872H143.595ZM188.061 11.54C189.868 11.54 191.481 11.9217 192.901 12.6817C194.339 13.4334 195.518 14.6114 196.281 16.0593C197.115 17.5511 197.532 19.3543 197.532 21.4653V35.1871H192.817V22.1831C192.817 20.1002 192.303 18.5099 191.273 17.4104C190.244 16.2845 188.839 15.7216 187.059 15.7216C185.28 15.7216 183.861 16.2845 182.804 17.4104C181.774 18.5081 181.26 20.1002 181.26 22.1831V35.1888H176.545V22.1831C176.545 20.1002 176.03 18.5099 175.001 17.4104C173.972 16.2845 172.566 15.7216 170.787 15.7216C169.006 15.7216 167.588 16.2845 166.531 17.4104C165.502 18.5081 164.987 20.1002 164.987 22.1831V35.1888H160.231V11.9217H164.987V14.5816C165.787 13.6087 166.803 12.8419 167.95 12.3439C169.16 11.8062 170.468 11.5329 171.788 11.5417C173.623 11.5417 175.264 11.9358 176.711 12.7239C178.14 13.4938 179.305 14.6865 180.05 16.1438C180.745 14.7364 181.83 13.6246 183.304 12.8083C184.753 11.9707 186.394 11.5339 188.061 11.5417V11.54Z" fill="#E5E5E5"/>
</g>
<path d="M33.9921 0.0929698C32.8494 -0.0939242 31.6785 0.0124904 30.5872 0.402478C29.4959 0.792551 28.5193 1.45362 27.7474 2.32484C26.2741 3.9925 25.8157 6.16371 26.1695 8.33931C26.49 10.3014 26.9151 12.2928 27.0108 14.183C27.1446 17.0299 26.7156 19.8752 25.749 22.5529C24.8743 24.9758 23.6281 26.8547 20.9575 27.2705C20.7594 27.302 20.0384 27.3245 19.8336 27.3357C19.6289 27.3469 18.9813 27.3043 18.781 27.2728C16.1104 26.857 14.853 24.9781 13.9806 22.5394C13.014 19.8617 12.585 17.0164 12.7188 14.1695C12.8145 12.2861 13.2396 10.2924 13.5601 8.32587C13.9139 6.15018 13.4554 3.97906 11.9822 2.31131C11.2078 1.44078 10.2288 0.781179 9.13546 0.393432C8.04208 0.00577113 6.86966 -0.0975432 5.72635 0.0929698C2.30134 0.657185 0.020229 3.72728 0.000199684 6.94808C-0.00935832 8.18904 0.324384 9.40803 0.963835 10.4678C2.02984 12.2433 3.77905 13.538 5.30573 14.882C6.3161 15.781 8.0631 18.332 8.91993 21.0964C9.43844 22.7709 9.8613 24.4679 10.2796 26.1805C10.8672 28.5674 11.675 33.8401 12.2069 36.2338C13.2685 41.0256 16.5177 42.1112 19.7735 42.2213H19.8892C23.1452 42.1112 26.4478 41.0234 27.5093 36.2316C28.039 33.8379 28.8446 28.5629 29.4365 26.1783C29.8572 24.4746 30.2778 22.7687 30.7963 21.0942C31.6532 18.3297 33.4001 15.7698 34.4105 14.8797C35.9371 13.5312 37.6841 12.2411 38.7524 10.4655C39.3919 9.40579 39.7256 8.1868 39.716 6.94584C39.6983 3.71832 37.426 0.645897 33.9921 0.0929698Z" fill="#E5E5E5"/>
<defs>
<clipPath id="clip0_2013_8330">
<rect width="149.389" height="42.2207" fill="white" transform="translate(48.1465)"/>
</clipPath>
</defs>
</svg>
