<svg width="232" height="38" viewBox="0 0 232 38" fill="none" xmlns="http://www.w3.org/2000/svg">
<path fill-rule="evenodd" clip-rule="evenodd" d="M13.5924 0.59913L0.634298 4.81294C0.257805 4.93537 0.00292969 5.28626 0.00292969 5.68216V13.5267C0.00292969 14.1477 0.60901 14.588 1.19962 14.3959L14.1577 10.1821C14.5342 10.0597 14.7891 9.70877 14.7891 9.31286V1.46836C14.7891 0.847303 14.183 0.40707 13.5924 0.59913ZM13.5853 28.6698L0.627247 24.3717C0.253354 24.2477 0.000976562 23.898 0.000976562 23.5041V15.468C0.000976562 14.8447 0.611152 14.4042 1.20277 14.6004L14.1608 18.8985C14.5347 19.0225 14.7871 19.3721 14.7871 19.7661V27.8022C14.7871 28.4255 14.1769 28.866 13.5853 28.6698Z" fill="#E5E5E5"/>
<path fill-rule="evenodd" clip-rule="evenodd" d="M13.5924 0.59913L0.634298 4.81294C0.257805 4.93537 0.00292969 5.28626 0.00292969 5.68216V13.5267C0.00292969 14.1477 0.60901 14.588 1.19962 14.3959L14.1577 10.1821C14.5342 10.0597 14.7891 9.70877 14.7891 9.31286V1.46836C14.7891 0.847303 14.183 0.40707 13.5924 0.59913ZM13.5853 28.6698L0.627247 24.3717C0.253354 24.2477 0.000976562 23.898 0.000976562 23.5041V15.468C0.000976562 14.8447 0.611152 14.4042 1.20277 14.6004L14.1608 18.8985C14.5347 19.0225 14.7871 19.3721 14.7871 19.7661V27.8022C14.7871 28.4255 14.1769 28.866 13.5853 28.6698Z" fill="#E5E5E5"/>
<path fill-rule="evenodd" clip-rule="evenodd" d="M16.099 9.62361L29.0571 13.8374C29.4336 13.9598 29.6885 14.3107 29.6885 14.7066V22.5511C29.6885 23.1722 29.0824 23.6124 28.4918 23.4204L15.5337 19.2066C15.1572 19.0841 14.9023 18.7332 14.9023 18.3373V10.4928C14.9023 9.87178 15.5084 9.43155 16.099 9.62361ZM16.1061 37.6942L29.0642 33.3961C29.4381 33.2721 29.6904 32.9225 29.6904 32.5286V24.4925C29.6904 23.8691 29.0803 23.4287 28.4886 23.6249L15.5306 27.923C15.1567 28.047 14.9043 28.3966 14.9043 28.7905V36.8267C14.9043 37.45 15.5145 37.8905 16.1061 37.6942Z" fill="#E5E5E5"/>
<path fill-rule="evenodd" clip-rule="evenodd" d="M16.099 9.62361L29.0571 13.8374C29.4336 13.9598 29.6885 14.3107 29.6885 14.7066V22.5511C29.6885 23.1722 29.0824 23.6124 28.4918 23.4204L15.5337 19.2066C15.1572 19.0841 14.9023 18.7332 14.9023 18.3373V10.4928C14.9023 9.87178 15.5084 9.43155 16.099 9.62361ZM16.1061 37.6942L29.0642 33.3961C29.4381 33.2721 29.6904 32.9225 29.6904 32.5286V24.4925C29.6904 23.8691 29.0803 23.4287 28.4886 23.6249L15.5306 27.923C15.1567 28.047 14.9043 28.3966 14.9043 28.7905V36.8267C14.9043 37.45 15.5145 37.8905 16.1061 37.6942Z" fill="#E5E5E5"/>
<path d="M50.4809 21.3249C50.4809 21.4055 50.491 21.5163 50.5111 21.6573C50.5313 21.7781 50.6421 22.0097 50.8435 22.3522C51.065 22.6744 51.3571 22.9665 51.7196 23.2283C52.0822 23.4902 52.6461 23.7319 53.4115 23.9534C54.1971 24.1548 55.1236 24.2555 56.1911 24.2555C57.6211 24.2555 58.8296 24.0642 59.8166 23.6815C60.8035 23.2787 61.297 22.6643 61.297 21.8385C61.297 21.0732 60.7834 20.479 59.7562 20.056C58.7289 19.633 57.4802 19.3208 56.0098 19.1194C54.5596 18.918 53.0993 18.6763 51.629 18.3943C50.1788 18.0922 48.9401 17.5484 47.9129 16.7628C46.9058 15.9773 46.4022 14.9299 46.4022 13.6207C46.4224 11.7677 47.2683 10.3276 48.9401 9.30034C50.6118 8.27311 52.908 7.7595 55.8285 7.7595C57.0975 7.7595 58.2455 7.87028 59.2728 8.09184C60.3201 8.29326 61.1661 8.5551 61.8106 8.87736C62.4753 9.17949 63.0493 9.54204 63.5327 9.96502C64.0161 10.388 64.3787 10.7808 64.6204 11.1433C64.8621 11.5059 65.0534 11.8785 65.1944 12.2612C65.3354 12.6237 65.416 12.8856 65.4361 13.0467C65.4563 13.2078 65.4663 13.3186 65.4663 13.379L60.723 13.379C60.7028 13.3186 60.6726 13.2481 60.6323 13.1675C60.592 13.0668 60.4611 12.8956 60.2396 12.6539C60.0381 12.4122 59.7763 12.2007 59.454 12.0195C59.1519 11.8382 58.6786 11.667 58.034 11.5059C57.4097 11.3447 56.6946 11.2642 55.889 11.2642C54.3783 11.2642 53.19 11.4857 52.3239 11.9288C51.4779 12.3719 51.055 12.8856 51.055 13.4697C51.0751 14.0941 51.5988 14.5674 52.626 14.8897C53.6532 15.2119 54.8919 15.4637 56.3421 15.645C57.8125 15.8262 59.2728 16.0881 60.723 16.4305C62.1933 16.7528 63.432 17.3671 64.4391 18.2735C65.4663 19.1597 65.9799 20.338 65.9799 21.8083C65.9799 23.1981 65.4965 24.3562 64.5297 25.2828C63.5629 26.2093 62.3746 26.8639 60.9647 27.2466C59.5547 27.6091 57.9636 27.7904 56.1911 27.7904C54.8617 27.7904 53.6432 27.6696 52.5354 27.4279C51.4276 27.1862 50.5212 26.884 49.8162 26.5215C49.1314 26.1589 48.5171 25.736 47.9733 25.2526C47.4295 24.7692 47.0266 24.316 46.7648 23.893C46.5029 23.47 46.2914 23.047 46.1303 22.6241C45.9692 22.2011 45.8685 21.899 45.8282 21.7177C45.7879 21.5163 45.7678 21.3854 45.7678 21.3249L50.4809 21.3249ZM69.5186 15.645C71.1299 14.2753 73.3354 13.5905 76.1351 13.5905C78.955 13.5905 81.1705 14.2753 82.7819 15.645C84.4134 17.0146 85.2291 18.6964 85.2291 20.6905C85.2291 22.7046 84.4134 24.3965 82.7819 25.7662C81.1705 27.1157 78.955 27.7904 76.1351 27.7904C73.3354 27.7904 71.1198 27.1056 69.4884 25.736C67.877 24.3663 67.0714 22.6845 67.0714 20.6905C67.0714 18.6964 67.8871 17.0146 69.5186 15.645ZM72.7815 23.2887C73.5671 24.034 74.6849 24.4066 76.1351 24.4066C77.5853 24.4066 78.7032 24.0441 79.4887 23.319C80.2944 22.5737 80.6972 21.6975 80.6972 20.6905C80.6972 19.6028 80.3045 18.7166 79.5189 18.0318C78.7334 17.3268 77.6055 16.9743 76.1351 16.9743C74.6446 16.9743 73.5167 17.3167 72.7513 18.0015C71.9859 18.6864 71.6032 19.5827 71.6032 20.6905C71.6032 21.6975 71.996 22.5636 72.7815 23.2887ZM88.7526 15.4939C90.3035 14.225 92.4285 13.5905 95.1275 13.5905C96.195 13.5905 97.1719 13.6912 98.0581 13.8926C98.9443 14.0739 99.6694 14.3156 100.233 14.6177C100.797 14.8997 101.291 15.222 101.714 15.5845C102.137 15.9471 102.459 16.3096 102.681 16.6722C102.902 17.0347 103.073 17.3671 103.194 17.6692C103.335 17.9512 103.416 18.1828 103.436 18.3641L103.496 18.6662L98.9947 18.6662C98.9947 18.6259 98.9745 18.5655 98.9343 18.4849C98.9141 18.4044 98.8134 18.2735 98.6321 18.0922C98.471 17.8908 98.2595 17.7196 97.9977 17.5786C97.756 17.4174 97.3733 17.2764 96.8496 17.1556C96.346 17.0347 95.772 16.9743 95.1275 16.9743C93.7981 16.9743 92.7709 17.2966 92.0458 17.9411C91.3207 18.5655 90.9581 19.4417 90.9581 20.5696C90.9581 21.7177 91.3308 22.6442 92.076 23.3492C92.8213 24.0541 93.8384 24.4066 95.1275 24.4066C95.772 24.4066 96.346 24.3361 96.8496 24.1951C97.3733 24.034 97.756 23.8426 97.9977 23.6211C98.2595 23.3995 98.471 23.178 98.6321 22.9564C98.7933 22.7348 98.894 22.5536 98.9343 22.4126L98.9947 22.1709L103.436 22.1709C103.436 22.2514 103.416 22.3622 103.375 22.5032C103.355 22.6241 103.275 22.8859 103.134 23.2887C102.993 23.6714 102.812 24.0441 102.59 24.4066C102.389 24.749 102.066 25.1418 101.623 25.5849C101.2 26.0079 100.707 26.3805 100.143 26.7028C99.5989 27.0049 98.8839 27.2667 97.9977 27.4883C97.1316 27.6897 96.1748 27.7904 95.1275 27.7904C92.4083 27.7904 90.2733 27.1459 88.7224 25.8568C87.1917 24.5476 86.4263 22.7852 86.4263 20.5696C86.4263 18.4749 87.2017 16.783 88.7526 15.4939ZM109.623 13.8926L109.623 27.4883L105.182 27.4883L105.182 13.8926L109.623 13.8926ZM104.82 10.1765C104.82 9.4514 105.071 8.83708 105.575 8.33354C106.078 7.80986 106.683 7.54801 107.388 7.54801C108.113 7.54801 108.727 7.80986 109.231 8.33354C109.734 8.83708 109.986 9.4514 109.986 10.1765C109.986 10.8815 109.734 11.4857 109.231 11.9893C108.727 12.4928 108.113 12.7446 107.388 12.7446C106.683 12.7446 106.078 12.4928 105.575 11.9893C105.071 11.4857 104.82 10.8815 104.82 10.1765ZM111.326 23.6513C111.386 20.6905 115.183 19.059 122.716 18.7569L123.139 18.7569L123.592 18.7266L123.592 18.5756C123.592 17.3067 122.374 16.6722 119.936 16.6722C119.352 16.6722 118.829 16.7226 118.365 16.8233C117.922 16.9038 117.59 17.0146 117.368 17.1556C117.147 17.2764 116.966 17.4074 116.825 17.5484C116.704 17.6692 116.623 17.78 116.583 17.8807L116.553 18.0015L112.111 18.0015L112.323 17.216C112.988 15.5644 114.478 14.4667 116.794 13.9229C117.741 13.7013 118.798 13.5905 119.967 13.5905C122.525 13.5905 124.499 14.0437 125.888 14.9501C127.278 15.8565 127.973 17.075 127.973 18.6058L128.003 22.2313L128.003 22.896C128.003 23.2787 128.064 23.5405 128.184 23.6815C128.305 23.8225 128.507 23.893 128.789 23.893L129.181 23.893L129.181 27.4883L128.789 27.4883C127.339 27.4883 126.241 27.3473 125.496 27.0653C124.77 26.7833 124.267 26.2798 123.985 25.5547C122.595 27.0452 120.369 27.7904 117.308 27.7904C115.213 27.7904 113.693 27.4077 112.746 26.6423C111.799 25.8769 111.326 24.9001 111.326 23.7117C111.326 23.6916 111.326 23.6714 111.326 23.6513ZM116.009 23.6513C116.009 24.3361 116.704 24.6987 118.093 24.7389C118.174 24.7389 118.265 24.7389 118.365 24.7389C119.534 24.7389 120.692 24.4771 121.84 23.9534C122.988 23.4297 123.572 22.7046 123.592 21.7781L123.592 21.2645C122.726 21.2846 121.93 21.335 121.205 21.4156C120.48 21.476 119.675 21.5868 118.788 21.7479C117.922 21.909 117.237 22.1507 116.734 22.473C116.251 22.7751 116.009 23.1477 116.009 23.5909C116.009 23.611 116.009 23.6311 116.009 23.6513ZM130.722 8.06163L135.133 8.06163L135.133 22.8053C135.133 23.2082 135.204 23.4902 135.345 23.6513C135.506 23.8124 135.798 23.893 136.221 23.893L137.822 23.893L137.822 27.4883L136.221 27.4883C134.086 27.4883 132.636 27.1862 131.87 26.5819C131.105 25.9777 130.722 24.7188 130.722 22.8053L130.722 8.06163ZM146.988 27.4883L156.837 8.06163L161.912 8.06163L171.762 27.4883L166.988 27.4883L165.447 24.3764L153.302 24.3764L151.761 27.4883L146.988 27.4883ZM163.665 20.7811L159.375 12.1403L155.084 20.7811L163.665 20.7811ZM176.939 13.8926L176.939 16.3701C177.785 14.7185 179.144 13.8926 181.018 13.8926L183.858 13.8926L183.858 17.3973L181.108 17.3973C179.396 17.3973 178.288 17.8303 177.785 18.6964C177.281 19.5424 177.03 21.2645 177.03 23.8628L177.03 27.4883L172.558 27.4883L172.558 13.8926L176.939 13.8926ZM189.299 13.8926L189.299 15.9471C190.407 14.3962 192.109 13.6107 194.405 13.5905C194.506 13.5905 194.607 13.5905 194.707 13.5905C197.728 13.5905 199.733 14.517 200.72 16.3701C201.968 14.5775 203.882 13.6509 206.46 13.5905C206.54 13.5905 206.621 13.5905 206.702 13.5905C207.991 13.5905 209.098 13.7517 210.025 14.0739C210.972 14.376 211.697 14.8594 212.2 15.5241C212.704 16.1687 213.056 16.8736 213.258 17.639C213.479 18.4044 213.59 19.3007 213.59 20.3279L213.59 27.4883L209.088 27.4883L209.088 20.3279C209.088 19.2805 208.806 18.4447 208.242 17.8203C207.699 17.1959 206.903 16.8837 205.856 16.8837C205.815 16.8837 205.775 16.8837 205.735 16.8837C204.144 16.8837 203.046 17.2764 202.442 18.062C201.837 18.8475 201.535 19.9754 201.535 21.4458L201.535 27.4883L197.064 27.4883L197.064 20.3279C197.064 19.2805 196.782 18.4447 196.218 17.8203C195.654 17.1959 194.858 16.8837 193.831 16.8837C193.791 16.8837 193.751 16.8837 193.71 16.8837C192.099 16.8837 190.991 17.2764 190.387 18.062C189.783 18.8475 189.48 19.9754 189.48 21.4458L189.48 27.4883L185.009 27.4883L185.009 13.8926L189.299 13.8926ZM213.101 13.8926L217.784 13.8926L221.863 23.2887L226.032 13.8926L230.715 13.8926L223.827 28.3342C223.021 30.0866 222.427 31.1843 222.044 31.6274C221.339 32.4532 220.211 32.9064 218.66 32.987C218.419 33.0071 218.157 33.0172 217.875 33.0172L214.159 33.0172L214.159 29.4219L217.875 29.4219C218.399 29.4219 218.761 29.3514 218.962 29.2104C219.184 29.0694 219.406 28.7773 219.627 28.3342L219.959 27.6091L213.101 13.8926Z" fill="#E5E5E5"/>
</svg>
