<svg width="20" height="20" viewBox="0 0 20 20" fill="none" xmlns="http://www.w3.org/2000/svg">
<path d="M1.66667 20C1.16667 20 0.833333 19.8333 0.5 19.5C-0.166667 18.8333 -0.166667 17.8333 0.5 17.1667L17.1667 0.5C17.8333 -0.166667 18.8333 -0.166667 19.5 0.5C20.1667 1.16667 20.1667 2.16667 19.5 2.83333L2.83333 19.5C2.5 19.8333 2.16667 20 1.66667 20Z" fill="#D5FF63"/>
<path d="M18.3337 18.3333C17.3337 18.3333 16.667 17.6667 16.667 16.6667V3.33333H3.33366C2.33366 3.33333 1.66699 2.66667 1.66699 1.66667C1.66699 0.666667 2.33366 0 3.33366 0H18.3337C19.3337 0 20.0003 0.666667 20.0003 1.66667V16.6667C20.0003 17.6667 19.3337 18.3333 18.3337 18.3333Z" fill="#D5FF63"/>
</svg>
