<svg width="28" height="28" viewBox="0 0 28 28" fill="none" xmlns="http://www.w3.org/2000/svg">
<path d="M14 0C6.26259 0 0 6.2615 0 14C0 21.7374 6.2615 28 14 28C21.7374 28 28 21.7385 28 14C28 6.26259 21.7385 0 14 0ZM14 25.8125C7.47146 25.8125 2.1875 20.5291 2.1875 14C2.1875 7.47146 7.47086 2.1875 14 2.1875C20.5285 2.1875 25.8125 7.47086 25.8125 14C25.8125 20.5285 20.5291 25.8125 14 25.8125ZM17.2447 20.4531C17.2447 21.0573 16.7551 21.5469 16.151 21.5469H11.849C11.2449 21.5469 10.7553 21.0573 10.7553 20.4531C10.7553 19.849 11.2449 19.3594 11.849 19.3594H12.9062V12.9428H11.849C11.2449 12.9428 10.7553 12.4532 10.7553 11.849C10.7553 11.2449 11.2449 10.7553 11.849 10.7553H14C14.6041 10.7553 15.0938 11.2449 15.0938 11.849V19.3594H16.151C16.7551 19.3594 17.2447 19.849 17.2447 20.4531ZM12.6328 6.76309C12.6328 6.00791 13.2448 5.39591 14 5.39591C14.7552 5.39591 15.3672 6.00791 15.3672 6.76309C15.3672 7.51805 14.7552 8.13028 14 8.13028C13.2448 8.13028 12.6328 7.51805 12.6328 6.76309Z" fill="#D9DBDB"/>
</svg>
