<svg width="56" height="54" viewBox="0 0 56 54" fill="none" xmlns="http://www.w3.org/2000/svg">
<path d="M13.4931 34.3065L10.5331 51.6132C10.4531 52.1198 10.6531 52.6132 11.0664 52.9198C11.4797 53.2132 12.0264 53.2532 12.4664 53.0265L27.9997 44.8398L43.5331 53.0132C43.7331 53.1198 43.9464 53.1598 44.1597 53.1598C44.3544 53.1603 44.5468 53.1182 44.7234 53.0364C44.9001 52.9547 45.0568 52.8354 45.1825 52.6868C45.3083 52.5382 45.4 52.364 45.4514 52.1762C45.5027 51.9884 45.5124 51.7917 45.4797 51.5998L42.5197 34.2932L55.0931 22.0398C55.2701 21.8646 55.3948 21.6436 55.4532 21.4015C55.5117 21.1594 55.5016 20.9059 55.4241 20.6692C55.3466 20.4325 55.2047 20.2221 55.0144 20.0615C54.824 19.9009 54.5928 19.7964 54.3464 19.7598L36.9731 17.2398L29.1997 1.51984C28.7464 0.613177 27.2531 0.613177 26.8131 1.51984L19.0397 17.2532L1.66641 19.7865C1.15974 19.8532 0.746405 20.2132 0.586405 20.6932C0.426405 21.1732 0.559739 21.7065 0.919739 22.0665L13.4931 34.3065ZM20.1064 19.7998C20.5464 19.7332 20.9197 19.4665 21.1064 19.0665L27.9997 5.11984L34.8797 19.0665C35.0797 19.4665 35.4531 19.7332 35.8797 19.7998L51.2664 22.0398L40.1331 32.8932C39.8131 33.1998 39.6797 33.6398 39.7464 34.0798L42.3731 49.4132L28.6131 42.1732C28.4131 42.0665 28.1997 42.0265 27.9864 42.0265C27.7731 42.0265 27.5597 42.0798 27.3597 42.1732L13.6131 49.3998L16.2397 34.0665C16.2781 33.8522 16.2628 33.6317 16.1953 33.4246C16.1279 33.2176 16.0103 33.0305 15.8531 32.8798L4.71974 22.0265L20.1064 19.7998Z" fill="#D9DBDB"/>
</svg>
