<svg width="366" height="35" viewBox="0 0 366 35" fill="none" xmlns="http://www.w3.org/2000/svg">
<path d="M331.234 20.9166V0.223633H365.723V7.12129H338.132V14.0189H365.723V34.7119H331.234V27.8143H358.825V20.9166H331.234Z" fill="white"/>
<path d="M289.875 34.7119V0.223633H324.363V34.7119H289.875ZM296.773 7.12129V27.8143H317.466V7.12129H296.773Z" fill="white"/>
<path d="M248.516 34.7119V0.223633H276.106L283.004 0.223633V20.9166H276.106V27.8143H283.004V34.7119H276.106V27.8143H269.209V20.9166H255.413V34.7119H248.516ZM276.106 7.12129H255.413V14.0189H276.106V7.12129Z" fill="white"/>
<path d="M165.801 34.7119V0.223633H172.698V27.8143H200.289V34.7119H165.801Z" fill="white"/>
<path d="M124.441 34.7119V0.223633H158.93V7.12129H131.339V14.0189H145.134V20.9166H131.339V27.8143H158.93V34.7119H124.441Z" fill="white"/>
<path d="M89.9797 14.0189V7.12129H83.082V0.223633H89.9797V7.12129H96.8773V14.0189H103.775V20.9166H110.673V27.8143H117.57V34.7119H110.673V27.8143H103.775V20.9166H96.8773V14.0189H89.9797ZM83.082 34.7119V27.8143H89.9797V34.7119H83.082ZM89.9797 27.8143V20.9166H96.8773V27.8143H89.9797ZM110.673 7.12129V0.223633H117.57V7.12129H110.673ZM103.775 14.0189V7.12129H110.673V14.0189H103.775Z" fill="white"/>
<path d="M41.7227 7.12129V0.223633H76.2109V7.12129H62.4156V27.8143H76.2109V34.7119H41.7227V27.8143H55.518V7.12129H41.7227Z" fill="white"/>
<path d="M7.26094 20.9166V34.7119H0.363281V0.223633H27.9539V7.12129H34.8516V20.9166H7.26094ZM27.9539 7.12129H7.26094V14.0189H27.9539V7.12129Z" fill="white"/>
<path fill-rule="evenodd" clip-rule="evenodd" d="M207.156 0.223633V34.7119H234.747H241.645V0.223633H234.747H207.156ZM234.747 20.9166V27.8143H214.054V20.9166H234.747ZM234.747 7.12129V14.0189H214.054V7.12129H234.747ZM241.644 14.0257H234.755V20.9154H241.644V14.0257Z" fill="white"/>
</svg>
